<svg width="134" height="42" viewBox="0 0 134 42" fill="none" xmlns="http://www.w3.org/2000/svg">
<g clip-path="url(#clip0_6:548)">
<g clip-path="url(#clip1_6:548)">
<rect width="135" height="35.122" rx="6" transform="matrix(-1 0 0 1 135 3.58945)" fill="#F4F4F4"/>
<g opacity="0.4">
<path d="M104.938 33.4723C108.331 176.898 190.997 154.749 122.224 28.8415C265.652 25.4447 243.501 -57.2253 117.592 11.5558C114.198 -131.876 31.5291 -109.724 100.307 16.1861C-43.1231 19.5799 -20.9702 102.248 104.938 33.4723Z" stroke="#C8C8C8" stroke-width="0.137195" stroke-miterlimit="10"/>
<path d="M106.98 34.2872C134.947 173.552 211.744 137.742 123.039 26.8003C262.305 -1.1718 226.494 -77.9708 115.55 10.7415C87.5814 -128.53 10.7822 -92.7163 99.4921 18.2279C-39.7766 46.1969 -3.96323 122.994 106.98 34.2872Z" stroke="#C8C8C8" stroke-width="0.137195" stroke-miterlimit="10"/>
<path d="M109.112 34.7298C160.325 165.713 229.049 117.592 123.483 24.6696C254.466 -26.5496 206.344 -95.2758 113.42 10.298C62.2042 -120.691 -6.52216 -72.5668 99.0492 20.3587C-31.9371 71.5743 16.1873 140.299 109.112 34.7298Z" stroke="#C8C8C8" stroke-width="0.137195" stroke-miterlimit="10"/>
<path d="M111.266 34.7949C183.722 153.707 242.458 94.9705 123.549 22.5154C242.459 -49.9464 183.721 -108.684 111.266 10.2323C38.8075 -108.683 -19.9309 -49.9433 98.9845 22.5123C-19.9304 94.9715 38.8101 153.708 111.266 34.7949Z" stroke="#C8C8C8" stroke-width="0.137195" stroke-miterlimit="10"/>
<path d="M113.377 34.4886C204.47 137.977 251.644 70.6068 123.243 20.4029C226.73 -70.6955 159.358 -117.869 109.156 10.538C18.0586 -92.9538 -29.1151 -25.5802 99.2908 24.6237C-4.20015 115.721 63.1732 162.892 113.377 34.4886Z" stroke="#C8C8C8" stroke-width="0.137195" stroke-miterlimit="10"/>
<path d="M115.384 33.8274C221.998 119.073 256.411 45.2722 122.582 18.3968C207.825 -88.2217 134.023 -122.636 107.149 11.2003C0.531376 -74.048 -33.8827 -0.243929 99.9526 26.6299C14.7056 133.247 88.5083 167.66 115.384 33.8274Z" stroke="#C8C8C8" stroke-width="0.137195" stroke-miterlimit="10"/>
<path d="M117.226 32.8375C235.837 97.6257 256.704 19.7493 121.592 16.5534C186.377 -102.061 108.5 -122.928 105.307 12.1902C-13.3072 -52.601 -34.1743 25.2789 100.943 28.4728C36.1523 147.087 114.03 167.952 117.226 32.8375Z" stroke="#C8C8C8" stroke-width="0.137195" stroke-miterlimit="10"/>
<path d="M118.853 31.5547C245.644 74.3348 252.601 -5.18656 120.309 14.9268C163.086 -111.868 83.5626 -118.826 103.68 13.4725C-23.1145 -29.3096 -30.0719 50.2158 102.224 30.1C59.4432 156.894 138.966 163.849 118.853 31.5547Z" stroke="#C8C8C8" stroke-width="0.137195" stroke-miterlimit="10"/>
<path d="M120.218 30.0247C251.201 49.9376 244.313 -28.7954 118.78 13.561C138.689 -117.426 59.9543 -110.537 102.316 15.002C-28.6733 -4.91243 -21.7835 73.8251 103.754 31.4652C83.8397 162.452 162.574 155.561 120.218 30.0247Z" stroke="#C8C8C8" stroke-width="0.137195" stroke-miterlimit="10"/>
<path d="M121.286 28.2978C252.425 25.1945 232.173 -50.3909 117.052 12.4918C113.945 -118.651 38.3584 -98.3974 101.248 16.7274C-29.8975 19.8302 -9.64341 95.4196 105.48 32.5318C108.584 163.677 184.169 143.421 121.286 28.2978Z" stroke="#C8C8C8" stroke-width="0.137195" stroke-miterlimit="10"/>
<path d="M122.031 26.431C249.366 0.858769 216.623 -69.3593 115.186 11.7471C89.6095 -115.59 19.3891 -82.8463 100.503 18.5941C-26.8384 44.1673 5.90673 114.389 107.347 33.277C132.92 160.617 203.139 127.87 122.031 26.431Z" stroke="#C8C8C8" stroke-width="0.137195" stroke-miterlimit="10"/>
<path d="M122.435 24.4819C242.198 -22.3456 198.2 -85.183 113.237 11.3407C66.4051 -108.423 3.56585 -64.4222 100.097 20.5418C-19.671 67.3713 24.3307 130.212 109.295 33.6824C156.124 153.449 218.96 109.447 122.435 24.4819Z" stroke="#C8C8C8" stroke-width="0.137195" stroke-miterlimit="10"/>
<path d="M122.495 22.5113C231.22 -43.7382 177.516 -97.4432 111.267 11.2802C45.0131 -97.4447 -8.69371 -43.7372 100.037 22.5108C-8.69269 88.7634 45.0157 142.471 111.266 33.7419C177.517 142.469 231.221 88.7623 122.495 22.5113Z" stroke="#C8C8C8" stroke-width="0.137195" stroke-miterlimit="10"/>
<path d="M122.215 20.5805C216.838 -62.7101 155.24 -105.842 109.337 11.5599C26.0413 -83.0619 -17.0911 -21.4605 100.317 24.4407C5.69049 107.735 67.2922 150.869 113.196 33.4607C196.488 128.087 239.619 66.4852 122.215 20.5805Z" stroke="#C8C8C8" stroke-width="0.137195" stroke-miterlimit="10"/>
<path d="M121.61 18.7462C199.553 -78.7348 132.075 -110.201 107.502 12.1652C10.0172 -65.7758 -21.4493 1.70522 100.921 26.2759C22.9756 123.761 90.4569 155.228 115.03 32.8569C212.514 110.801 243.978 43.321 121.61 18.7462Z" stroke="#C8C8C8" stroke-width="0.137195" stroke-miterlimit="10"/>
<path d="M120.704 17.0616C179.943 -91.3892 108.738 -110.468 105.816 13.0701C-2.63731 -46.1665 -21.717 25.0414 101.827 27.9605C42.5841 136.415 113.792 155.495 116.714 31.951C225.167 91.1912 244.245 19.9848 120.704 17.0616Z" stroke="#C8C8C8" stroke-width="0.137195" stroke-miterlimit="10"/>
<path d="M119.532 15.5748C158.647 -100.356 85.939 -106.718 104.329 14.2421C-11.6037 -24.8706 -17.9639 47.8414 102.999 29.4479C63.8822 145.382 136.594 151.744 118.202 30.7785C234.135 69.8953 240.494 -2.81572 119.532 15.5748Z" stroke="#C8C8C8" stroke-width="0.137195" stroke-miterlimit="10"/>
<path d="M118.133 14.3266C136.341 -105.437 64.3523 -99.139 103.08 15.6415C-16.6851 -2.56287 -10.3859 69.4284 104.398 30.6962C86.1878 150.465 158.18 144.165 119.45 29.3803C239.216 47.5882 232.916 -24.4015 118.133 14.3266Z" stroke="#C8C8C8" stroke-width="0.137195" stroke-miterlimit="10"/>
<path d="M116.554 13.3494C113.717 -106.558 44.6066 -88.0402 102.102 17.2197C-17.8049 20.0601 0.713753 89.1733 105.975 31.6727C108.812 151.585 177.925 133.065 120.426 27.8018C240.335 24.9646 221.815 -44.1472 116.554 13.3494Z" stroke="#C8C8C8" stroke-width="0.137195" stroke-miterlimit="10"/>
<path d="M114.847 12.6688C91.4652 -103.76 27.2623 -73.8222 101.421 18.9273C-15.0075 42.3123 14.9325 106.517 107.683 32.3538C131.064 148.786 195.269 118.846 121.107 26.0948C237.538 2.71234 207.598 -61.4914 114.847 12.6688Z" stroke="#C8C8C8" stroke-width="0.137195" stroke-miterlimit="10"/>
<path d="M113.064 12.2985C70.2495 -97.2062 12.7944 -56.976 101.051 20.7096C-8.45368 63.5283 31.7779 120.985 109.464 32.7246C152.28 142.233 209.737 102.001 121.477 24.3129C230.983 -18.5038 190.752 -75.9586 113.064 12.2985Z" stroke="#C8C8C8" stroke-width="0.137195" stroke-miterlimit="10"/>
<path d="M111.264 12.2436C50.6904 -87.1678 1.58481 -38.0636 100.995 22.5108C1.58481 83.0878 50.6914 132.194 111.264 32.7796C171.84 132.195 220.947 83.0878 121.532 22.5128C220.946 -38.0641 171.84 -87.1683 111.264 12.2436Z" stroke="#C8C8C8" stroke-width="0.137195" stroke-miterlimit="10"/>
<path d="M109.499 12.4999C33.3432 -74.0175 -6.09481 -17.6955 101.251 24.2768C14.7351 100.435 71.0595 139.873 113.029 32.5237C189.187 119.045 228.626 62.7196 121.276 20.7473C207.795 -55.4104 151.472 -94.847 109.499 12.4999Z" stroke="#C8C8C8" stroke-width="0.137195" stroke-miterlimit="10"/>
<path d="M107.822 13.0538C18.6911 -58.2126 -10.0805 3.48498 101.805 25.9544C30.5402 115.087 92.2395 143.859 114.706 31.9713C203.84 103.24 232.611 41.5386 120.723 19.0702C191.99 -70.0632 130.291 -98.8329 107.822 13.0538Z" stroke="#C8C8C8" stroke-width="0.137195" stroke-miterlimit="10"/>
<path d="M106.281 13.8814C7.1214 -40.2834 -10.325 24.8232 102.632 27.4951C48.47 126.657 113.576 144.103 116.247 31.1437C215.41 85.3101 232.855 20.201 119.895 17.53C174.06 -81.6331 108.954 -99.0775 106.281 13.8814Z" stroke="#C8C8C8" stroke-width="0.137195" stroke-miterlimit="10"/>
<path d="M104.921 14.9537C-1.07769 -20.8115 -6.89518 45.6705 103.704 28.8548C67.9407 134.856 134.423 140.673 117.606 30.0715C223.609 65.8377 229.425 -0.645786 118.822 16.1704C154.589 -89.8316 88.1073 -95.6476 104.921 14.9537Z" stroke="#C8C8C8" stroke-width="0.137195" stroke-miterlimit="10"/>
<path d="M103.779 16.2329C-5.72403 -0.415437 0.0334385 65.4073 104.983 29.9961C88.3364 139.502 154.161 133.744 118.748 28.7932C228.256 45.4415 222.496 -20.3833 117.544 15.0289C134.193 -94.4788 68.3702 -88.7188 103.779 16.2329Z" stroke="#C8C8C8" stroke-width="0.137195" stroke-miterlimit="10"/>
<path d="M102.886 17.6765C-6.74808 20.2702 10.1825 83.4611 106.427 30.8894C109.022 140.526 172.215 123.595 119.641 27.3491C229.28 24.7545 212.346 -38.437 116.101 14.1363C113.507 -95.5027 50.3164 -78.569 102.886 17.6765Z" stroke="#C8C8C8" stroke-width="0.137195" stroke-miterlimit="10"/>
<path d="M102.264 19.2371C-4.19009 40.6159 23.1827 99.319 107.989 31.5125C129.368 137.968 188.073 110.594 120.264 25.7881C226.722 4.40873 199.347 -54.2964 114.54 13.5132C93.1609 -92.9446 34.458 -65.5692 102.264 19.2371Z" stroke="#C8C8C8" stroke-width="0.137195" stroke-miterlimit="10"/>
<path d="M101.926 20.8663C1.80186 60.0151 38.5852 112.548 109.618 31.8523C148.766 131.977 201.301 95.1923 120.603 24.1594C220.729 -14.9899 183.944 -67.524 112.911 13.1744C73.7623 -86.9521 21.2299 -50.1671 101.926 20.8663Z" stroke="#C8C8C8" stroke-width="0.137195" stroke-miterlimit="10"/>
<path d="M101.876 22.5129C10.98 77.899 55.8769 122.798 111.264 31.9017C166.651 122.798 211.551 77.899 120.653 22.5129C211.551 -32.8748 166.651 -77.7739 111.264 13.1246C55.8769 -77.7739 10.98 -32.8743 101.876 22.5129Z" stroke="#C8C8C8" stroke-width="0.137195" stroke-miterlimit="10"/>
<g opacity="0.5">
<path fill-rule="evenodd" clip-rule="evenodd" d="M108.888 22.1331C108.642 21.9809 108.562 21.6698 108.714 21.4285C109.228 20.6138 110.117 20.1248 111.098 20.1248C112.639 20.1248 113.898 21.3455 113.898 22.8354C113.898 24.3348 112.639 25.5514 111.098 25.5514C110.117 25.5514 109.228 25.0634 108.714 24.242C108.562 24.0031 108.642 23.6936 108.888 23.5441C109.136 23.3943 109.458 23.4736 109.609 23.7152C109.934 24.2241 110.486 24.5299 111.098 24.5299C112.063 24.5299 112.846 23.7716 112.846 22.8354C112.846 21.9037 112.063 21.142 111.098 21.142C110.486 21.142 109.934 21.4461 109.609 21.9644C109.458 22.202 109.136 22.2799 108.888 22.1331Z" fill="white"/>
<path d="M108.714 21.4285C108.563 21.6698 108.642 21.981 108.888 22.1332C109.136 22.28 109.458 22.202 109.609 21.9644C109.934 21.4461 110.486 21.142 111.098 21.142C112.063 21.142 112.846 21.9037 112.846 22.8355C112.846 23.7716 112.063 24.5299 111.098 24.5299C110.486 24.5299 109.934 24.2242 109.609 23.7152C109.458 23.4736 109.136 23.3943 108.888 23.5441C108.642 23.6936 108.563 24.0031 108.714 24.242C109.228 25.0635 110.117 25.5514 111.098 25.5514C112.639 25.5514 113.898 24.3348 113.898 22.8355C113.898 21.3455 112.639 20.1249 111.098 20.1249C110.117 20.1249 109.228 20.6139 108.714 21.4285ZM115.808 18.7615C115.868 18.7979 115.917 18.8563 115.933 18.9252C116.424 20.6763 117.546 26.5605 111.381 28.7365C111.348 28.748 111.318 28.7547 111.282 28.7547H111.267H111.251C111.218 28.7547 111.185 28.748 111.15 28.7365C104.98 26.5578 106.11 20.6763 106.597 18.9252C106.617 18.8563 106.665 18.7979 106.727 18.7571C108.085 17.9367 109.652 17.5051 111.265 17.5047H111.269C112.878 17.5051 114.444 17.9367 115.808 18.7615Z" fill="#C8C8C8"/>
<path d="M108.714 21.4285C108.563 21.6698 108.642 21.981 108.888 22.1332C109.136 22.28 109.458 22.202 109.609 21.9644C109.934 21.4461 110.486 21.142 111.098 21.142C112.063 21.142 112.846 21.9037 112.846 22.8355C112.846 23.7716 112.063 24.5299 111.098 24.5299C110.486 24.5299 109.934 24.2242 109.609 23.7152C109.458 23.4736 109.136 23.3943 108.888 23.5441C108.642 23.6936 108.563 24.0031 108.714 24.242C109.228 25.0635 110.117 25.5514 111.098 25.5514C112.639 25.5514 113.898 24.3348 113.898 22.8355C113.898 21.3455 112.639 20.1249 111.098 20.1249C110.117 20.1249 109.228 20.6139 108.714 21.4285ZM115.808 18.7615C115.868 18.7979 115.917 18.8563 115.933 18.9252C116.424 20.6763 117.546 26.5605 111.381 28.7365C111.348 28.748 111.318 28.7547 111.282 28.7547H111.267H111.251C111.218 28.7547 111.185 28.748 111.15 28.7365C104.98 26.5578 106.11 20.6763 106.597 18.9252C106.617 18.8563 106.665 18.7979 106.727 18.7571C108.085 17.9367 109.652 17.5051 111.265 17.5047H111.269C112.878 17.5051 114.444 17.9367 115.808 18.7615Z" stroke="#C8C8C8"/>
</g>
</g>
</g>
<path d="M36.537 33.5017C36.8307 33.5017 37.052 33.2743 37.052 32.9217C37.052 32.5754 36.8407 32.3317 36.5402 32.3317C36.2529 32.3317 36.0251 32.5459 36.0251 32.9217C36.0251 33.238 36.2201 33.5017 36.537 33.5017ZM35.6787 31.3923H36.0383V32.2858C36.0847 32.2101 36.2697 32.0122 36.5965 32.0122C37.0884 32.0122 37.4148 32.3876 37.4148 32.9185C37.4148 33.4458 37.0652 33.8184 36.5733 33.8184C36.2401 33.8184 36.0647 33.6106 36.0187 33.5511V33.7753H35.6787V31.3923Z" fill="#00A3E0"/>
<path d="M38.0693 34.3652L38.3138 33.7458L37.6301 32.0548H38.0165L38.482 33.3074L38.9407 32.0548H39.3171L38.4157 34.3652H38.0693Z" fill="#00A3E0"/>
<path fill-rule="evenodd" clip-rule="evenodd" d="M51.8406 31.4244C51.8398 31.2856 51.7611 31.1998 51.6148 31.1998H50.6383C50.1132 31.1998 49.8871 31.424 49.8871 31.9497V32.9996C49.8871 33.207 49.794 33.2996 49.5802 33.2996H48.3096C48.1741 33.2996 48.0842 33.3869 48.0842 33.5261C48.0842 33.6606 48.1705 33.7491 48.3064 33.7491H49.5802C50.1033 33.7491 50.3374 33.5249 50.3374 32.9996V31.9497C50.3374 31.7263 50.4185 31.6501 50.6383 31.6501H51.6148C51.7611 31.6501 51.8398 31.562 51.8406 31.4244" fill="#231F20"/>
<path fill-rule="evenodd" clip-rule="evenodd" d="M44.0277 31.1992L41.7741 31.1996C41.3234 31.1996 41.0229 31.4996 41.0229 31.95V32.9998C41.0229 33.4498 41.3234 33.7494 41.7741 33.7486H43.577C43.7272 33.7494 43.8771 33.5998 43.8771 33.4498V32.9248C43.8771 32.7948 43.7804 32.6999 43.6569 32.6999C43.5163 32.6999 43.4268 32.788 43.4268 32.9248V33.2998H41.7741C41.6239 33.2998 41.4737 33.1494 41.4737 32.9998V31.95C41.4737 31.7996 41.6239 31.65 41.7741 31.6492L44.0277 31.65C44.1784 31.65 44.3286 31.7996 44.3286 31.95V33.5248C44.3286 33.6429 44.4185 33.7494 44.5539 33.7494C44.6814 33.7494 44.7789 33.678 44.7789 33.5248V31.95C44.7789 31.4996 44.4788 31.1996 44.0277 31.1992Z" fill="#231F20"/>
<path fill-rule="evenodd" clip-rule="evenodd" d="M52.291 32.9996C52.291 33.5249 52.5116 33.7491 53.0422 33.7491H55.8212C55.9571 33.7491 56.047 33.6622 56.047 33.5233C56.047 33.3889 55.9603 33.2996 55.824 33.2996H53.0422C52.8165 33.296 52.7413 33.219 52.7413 32.9996V31.9497C52.7413 31.7255 52.8232 31.6497 53.0422 31.6497H55.2958C55.508 31.6497 55.5963 31.7283 55.5963 31.9497C55.5963 32.1743 55.5175 32.2497 55.2958 32.2497H53.4194C53.268 32.2497 53.194 32.3251 53.194 32.4743C53.194 32.6187 53.2708 32.6996 53.4194 32.6996H55.2958C55.8276 32.6996 56.047 32.4743 56.047 31.9497C56.047 31.4248 55.8204 31.1998 55.2958 31.1998H53.0422C52.5024 31.1998 52.291 31.4244 52.291 31.9497V32.9996Z" fill="#231F20"/>
<path fill-rule="evenodd" clip-rule="evenodd" d="M56.4976 32.9996C56.4976 33.5249 56.7185 33.7491 57.2488 33.7491H59.7736C59.9095 33.7491 59.999 33.6622 59.999 33.5233C59.999 33.3889 59.9207 33.2996 59.7764 33.2996H57.2488C57.0238 33.296 56.9479 33.219 56.9479 32.9996V31.9497C56.9479 31.7307 57.0238 31.6529 57.2488 31.6497H59.7704C59.9067 31.6497 59.9962 31.5636 59.9962 31.4248C59.9962 31.2899 59.9095 31.1998 59.7732 31.1998H57.2488C56.7185 31.1998 56.4976 31.4244 56.4976 31.9497V32.9996Z" fill="#231F20"/>
<path fill-rule="evenodd" clip-rule="evenodd" d="M61.2466 33.2991C61.0213 33.2959 60.9462 33.2145 60.9462 32.9959V31.946C60.9462 31.727 61.0213 31.6528 61.2466 31.65H63.5002C63.7252 31.6528 63.8007 31.7306 63.8007 31.9496V32.9959C63.8007 33.2145 63.7252 33.2959 63.5002 33.2995L61.2466 33.2991ZM60.4958 32.9959C60.4958 33.5213 60.7168 33.749 61.2466 33.749H63.5002C64.0304 33.749 64.2514 33.5213 64.2514 32.9959V31.946C64.2514 31.4211 64.0304 31.1997 63.5002 31.1997H61.2466C60.7168 31.1997 60.4958 31.4211 60.4958 31.946V32.9959Z" fill="#231F20"/>
<path fill-rule="evenodd" clip-rule="evenodd" d="M48.9855 31.4244C48.9847 31.2856 48.906 31.1998 48.7594 31.1998H47.7832C47.2582 31.1998 47.0316 31.424 47.0316 31.9497V32.9996C47.0316 33.207 46.9389 33.2996 46.7252 33.2996H45.4457C45.3107 33.2996 45.2288 33.3869 45.2288 33.5261C45.2288 33.6606 45.3107 33.7491 45.4457 33.7491H46.7252C47.2478 33.7491 47.4823 33.5249 47.4823 32.9996V31.9497C47.4823 31.7263 47.5634 31.6501 47.7832 31.6501H48.7594C48.9064 31.6501 48.9847 31.562 48.9855 31.4244" fill="#231F20"/>
<path d="M43.6879 24.9795C43.2803 25.2845 42.3342 25.938 41.0096 25.938C38.8262 25.938 37.3998 24.2824 37.3998 22.1765C37.3998 20.0706 38.8699 18.4149 40.995 18.4149C42.1886 18.4149 43.1202 18.9813 43.5569 19.3153L44.0372 17.892C43.4404 17.4418 42.3924 16.9044 40.9514 16.9044C37.9674 16.9044 35.7258 19.1846 35.7258 22.1765C35.7258 25.1683 37.8801 27.4485 40.9659 27.4485C42.538 27.4485 43.6588 26.7804 44.1682 26.3883L43.6879 24.9795Z" fill="#231F20"/>
<path d="M45.3685 23.4981C45.3685 25.7928 46.9405 27.4485 49.3131 27.4485C51.1181 27.4485 52.1224 26.4173 52.4863 25.7928L51.4383 25.0085C51.1472 25.4297 50.4922 26.0688 49.3423 26.0688C47.9886 26.0688 47.0133 25.1973 46.9842 23.8467H52.7047C52.7192 23.716 52.7192 23.5852 52.7192 23.4545C52.7192 21.0727 51.3655 19.4896 49.0657 19.4896C46.9842 19.4896 45.3685 21.1453 45.3685 23.4981ZM47.0424 22.7574C47.1443 21.5665 47.9886 20.8113 49.0803 20.8113C50.1719 20.8113 51.0453 21.5084 51.1035 22.7574H47.0424Z" fill="#231F20"/>
<path d="M58.0106 19.4896C56.9335 19.4896 56.1329 20.1141 55.8418 20.8694V19.6784H54.2843V27.2597H55.8709V23.9919C55.8709 22.3507 56.3512 21.0872 58.0106 21.0872V19.4896Z" fill="#231F20"/>
<path d="M60.0512 19.6784H59.2069V20.9855H60.0512V24.2678C60.0512 26.1268 60.6043 27.3613 62.4529 27.3613C62.9478 27.3613 63.2243 27.3032 63.2243 27.3032V25.938C63.2243 25.938 63.0497 25.9526 62.9187 25.9526C62.0744 25.9526 61.6232 25.6911 61.6232 24.5147V20.9855H63.1661V19.6784H61.6232V18.0954H60.0512V19.6784Z" fill="#231F20"/>
<path d="M67.3793 27.4485C68.3983 27.4485 69.1843 26.8821 69.5191 26.2721V27.2597H71.0765V19.6784H69.4899V24.2533C69.4899 25.299 68.8349 26.0252 67.8306 26.0252C66.9572 26.0252 66.3022 25.4152 66.3022 24.3695V19.6784H64.7302V24.2388C64.7302 25.8945 65.4143 27.4485 67.3793 27.4485Z" fill="#231F20"/>
<path d="M83.8101 22.3072C83.8101 20.666 82.9367 19.4896 81.2191 19.4896C80.1711 19.4896 79.3269 19.9544 78.8756 20.7532C78.5117 19.9834 77.7548 19.4896 76.6922 19.4896C75.6588 19.4896 74.9164 20.0851 74.6399 20.666C74.6399 20.666 74.6399 20.3175 74.6399 19.6784H73.0824V27.2597H74.669V22.6993C74.669 21.6101 75.3386 20.9129 76.1973 20.9129C77.0998 20.9129 77.6529 21.5374 77.6529 22.5686V27.2597H79.2395V22.7284C79.2395 21.5665 79.8945 20.9129 80.7824 20.9129C81.7286 20.9129 82.238 21.5374 82.238 22.7138V27.2597H83.8101V22.3072Z" fill="#231F20"/>
<path d="M35.8247 13.0774C35.9342 13.4006 36.2574 13.9011 37.0029 13.9011C37.7224 13.9011 38.1655 13.4423 38.1655 12.8324C38.1655 11.6854 36.5129 11.8158 36.5129 11.0963C36.5129 10.8461 36.6953 10.6479 37.0186 10.6479C37.3783 10.6479 37.5451 10.8982 37.6285 11.0754L38.1082 10.8617C38.0195 10.6062 37.7224 10.1162 37.029 10.1162C36.3565 10.1162 35.9342 10.5333 35.9342 11.1015C35.9342 12.2745 37.5764 12.1025 37.5764 12.8741C37.5764 13.1817 37.3574 13.3641 37.029 13.3641C36.6276 13.3641 36.4138 13.1087 36.3147 12.848L35.8247 13.0774ZM38.7373 13.8333H40.5933V13.312H39.316V12.238H40.3795V11.7219H39.316V10.7053H40.5411V10.184H38.7373V13.8333ZM43.8805 13.0148C43.7345 13.1243 43.3957 13.3589 42.9212 13.3589C42.1392 13.3589 41.6283 12.7646 41.6283 12.0086C41.6283 11.2527 42.1549 10.6584 42.916 10.6584C43.3435 10.6584 43.6772 10.8617 43.8336 10.9816L44.0056 10.4707C43.7919 10.3091 43.4165 10.1162 42.9004 10.1162C41.8316 10.1162 41.0288 10.9347 41.0288 12.0086C41.0288 13.0826 41.8004 13.9011 42.9056 13.9011C43.4687 13.9011 43.8701 13.6613 44.0526 13.5205L43.8805 13.0148ZM45.9996 13.9011C46.8858 13.9011 47.4072 13.3172 47.4072 12.4883V10.184H46.8337V12.4831C46.8337 13.0201 46.5365 13.3641 45.9996 13.3641C45.4574 13.3641 45.1654 13.0253 45.1654 12.4883V10.184H44.5867V12.4935C44.5867 13.3381 45.0872 13.9011 45.9996 13.9011ZM48.1509 13.8333H48.7296V12.3267H49.2353L50.0017 13.8333H50.643L49.7567 12.1963C50.1268 12.0451 50.351 11.6802 50.351 11.2579C50.351 10.6479 49.9131 10.184 49.1311 10.184H48.1509V13.8333ZM48.7296 11.8314V10.6897H49.1206C49.5429 10.6897 49.7515 10.919 49.7515 11.2579C49.7515 11.6281 49.4856 11.8314 49.1206 11.8314H48.7296ZM51.1039 13.8333H52.9598V13.312H51.6826V12.238H52.7461V11.7219H51.6826V10.7053H52.9077V10.184H51.1039V13.8333ZM53.5935 13.8333H54.4537C55.658 13.8333 56.3983 13.1973 56.3983 12.0086C56.3983 10.8669 55.6736 10.184 54.4537 10.184H53.5935V13.8333ZM54.1722 13.3276V10.6949H54.511C55.293 10.6949 55.7987 11.1693 55.7987 12.0086C55.7987 12.8793 55.293 13.3276 54.511 13.3276H54.1722ZM58.2723 13.8333H59.4349C60.0866 13.8333 60.6183 13.4111 60.6183 12.7594C60.6183 12.3684 60.3994 12.0712 60.0397 11.92C60.316 11.7688 60.4984 11.4821 60.4984 11.1328C60.4984 10.5697 60.0553 10.184 59.3463 10.184H58.2723V13.8333ZM58.851 11.7115V10.6897H59.3619C59.6956 10.6897 59.9041 10.8826 59.9041 11.1901C59.9041 11.5029 59.6799 11.7115 59.3671 11.7115H58.851ZM58.851 13.3329V12.1859H59.3776C59.7373 12.1859 60.0188 12.3684 60.0188 12.7594C60.0188 13.14 59.7425 13.3329 59.3776 13.3329H58.851ZM61.9666 13.8333H62.5401V12.1442L63.6662 10.184H63.0249L62.2534 11.6072L61.4974 10.184H60.8405L61.9666 12.1442V13.8333Z" fill="#00A3E0"/>
<rect width="23.9675" height="40.3089" transform="matrix(1 0 0 -1 99.9553 41.1545)" fill="#00A3E0"/>
<path d="M99.9551 41.1545L95.5974 38.4309H99.9551V41.1545Z" fill="#00A3E0"/>
<path d="M99.9551 41.1545L95.5974 38.4309H99.9551V41.1545Z" fill="black" fill-opacity="0.3"/>
<path d="M99.9551 0.845551L95.5974 3.56913H99.9551V0.845551Z" fill="#00A3E0"/>
<path d="M99.9551 0.845551L95.5974 3.56913H99.9551V0.845551Z" fill="black" fill-opacity="0.3"/>
<path fill-rule="evenodd" clip-rule="evenodd" d="M108.535 14.7358C108.535 14.3597 108.839 14.0549 109.215 14.0549H114.663C115.039 14.0549 115.343 14.3597 115.343 14.7358V17.4593H108.535V14.7358ZM106.628 17.6069V14.7358C106.628 13.3068 107.786 12.1484 109.215 12.1484H114.663C116.092 12.1484 117.25 13.3068 117.25 14.7358V17.6069C118.591 18.0233 119.565 19.2739 119.565 20.752V27.2398C119.565 29.0583 118.091 30.5325 116.272 30.5325H107.606C105.787 30.5325 104.313 29.0583 104.313 27.2398V20.752C104.313 19.274 105.287 18.0233 106.628 17.6069ZM112.756 25.0855C113.087 24.8371 113.301 24.4415 113.301 23.9959C113.301 23.2438 112.691 22.6341 111.939 22.6341C111.187 22.6341 110.577 23.2438 110.577 23.9959C110.577 24.4414 110.791 24.837 111.122 25.0854V27.2622C111.122 27.4137 111.245 27.5366 111.396 27.5366H112.482C112.633 27.5366 112.756 27.4137 112.756 27.2622V25.0855Z" fill="white"/>
<path fill-rule="evenodd" clip-rule="evenodd" d="M24.202 19.6784C24.6777 19.3726 24.8304 18.7474 24.5377 18.2625C23.5447 16.6256 21.8279 15.643 19.9327 15.643C16.9565 15.643 14.5251 18.0957 14.5251 21.0896C14.5251 24.1025 16.9565 26.5471 19.9327 26.5471C21.8279 26.5471 23.5447 25.5665 24.5377 23.916C24.8304 23.4359 24.6777 22.8141 24.202 22.5136C23.723 22.2126 23.1014 22.3719 22.8094 22.8575C22.1811 23.8801 21.1148 24.4944 19.9327 24.4944C18.0692 24.4944 16.5569 22.9707 16.5569 21.0896C16.5569 19.2173 18.0692 17.6868 19.9327 17.6868C21.1148 17.6868 22.1811 18.2978 22.8094 19.3394C23.1014 19.8168 23.723 19.9734 24.202 19.6784Z" fill="white"/>
<path d="M24.5376 18.2625C24.8302 18.7474 24.6775 19.3726 24.2019 19.6784C23.7229 19.9734 23.1012 19.8168 22.8093 19.3394C22.1809 18.2978 21.1146 17.6868 19.9326 17.6868C18.069 17.6868 16.5567 19.2173 16.5567 21.0896C16.5567 22.9707 18.069 24.4944 19.9326 24.4944C21.1146 24.4944 22.1809 23.88 22.8093 22.8574C23.1012 22.3719 23.7229 22.2125 24.2019 22.5136C24.6775 22.814 24.8302 23.4359 24.5376 23.916C23.5446 25.5665 21.8277 26.5471 19.9326 26.5471C16.9563 26.5471 14.525 24.1024 14.525 21.0896C14.525 18.0957 16.9563 15.643 19.9326 15.643C21.8277 15.643 23.5446 16.6255 24.5376 18.2625ZM10.8356 12.9034C10.7199 12.9766 10.6257 13.0939 10.5941 13.2322C9.64484 16.751 7.47925 28.5746 19.3863 32.9471C19.4495 32.9702 19.5087 32.9837 19.5767 32.9837H19.6063H19.6372C19.7018 32.9837 19.7651 32.9702 19.8317 32.9471C31.7508 28.5692 29.5684 16.751 28.6272 13.2322C28.5889 13.0939 28.4947 12.9766 28.3763 12.8945C25.7532 11.246 22.7258 10.3787 19.6103 10.3781H19.6029C16.4955 10.3787 13.4701 11.246 10.8356 12.9034Z" fill="#00A3E0"/>
</g>
<defs>
<clipPath id="clip0_6:548">
<rect width="134" height="40.3089" fill="white" transform="translate(0 0.845551)"/>
</clipPath>
<clipPath id="clip1_6:548">
<rect width="135" height="35.122" rx="3.29268" transform="matrix(-1 0 0 1 135 3.58945)" fill="white"/>
</clipPath>
</defs>
</svg>
