<?xml version="1.0" standalone="no"?>
<!DOCTYPE svg PUBLIC "-//W3C//DTD SVG 1.1//EN" "http://www.w3.org/Graphics/SVG/1.1/DTD/svg11.dtd" >
<svg xmlns="http://www.w3.org/2000/svg" xmlns:xlink="http://www.w3.org/1999/xlink" version="1.1">
<metadata>
Created by FontForge 20200427 at Tue Apr 12 22:27:42 1994
 By www
URW Software, Copyright 1994 by URW
</metadata>
<defs>
<font id="HandelGotD-Bold" horiz-adv-x="512" >
  <font-face 
    font-family="HandelGotDBol"
    font-weight="400"
    font-stretch="normal"
    units-per-em="2048"
    panose-1="2 11 8 1 3 7 3 3 8 4"
    ascent="1673"
    descent="-375"
    x-height="997"
    cap-height="1365"
    bbox="-324 -512 2536 1839"
    underline-thickness="224"
    underline-position="-303"
    unicode-range="U+0020-F002"
  />
<missing-glyph 
d="M51 0v1365h410v-1365h-410zM410 51v1263h-308v-1263h308z" />
    <glyph glyph-name=".notdef" 
d="M51 0v1365h410v-1365h-410zM410 51v1263h-308v-1263h308z" />
    <glyph glyph-name="glyph1" horiz-adv-x="0" 
 />
    <glyph glyph-name="glyph2" 
 />
    <glyph glyph-name="space" unicode=" " 
 />
    <glyph glyph-name="exclam" unicode="!" horiz-adv-x="560" 
d="M425 1365v-1030h-290v1030h290zM425 232v-232h-290v232h290z" />
    <glyph glyph-name="quotedbl" unicode="&#x22;" horiz-adv-x="838" 
d="M314 816h-186v549h186v-549zM709 816h-186v549h186v-549z" />
    <glyph glyph-name="numbersign" unicode="#" horiz-adv-x="1338" 
d="M400 1297h230l-54 -345h267l55 345h231l-55 -345h226l-22 -137h-226l-37 -237h226l-22 -137h-226l-59 -373h-231l59 373h-267l-59 -373h-231l59 373h-226l22 137h226l37 237h-226l22 137h226zM822 815h-268l-38 -237h268z" />
    <glyph glyph-name="dollar" unicode="$" horiz-adv-x="1426" 
d="M631 243v330q-168 0 -224 6t-121 32q-109 42 -169 160q-45 89 -45 190q0 88 35.5 173.5t96.5 142.5t137.5 73t289.5 15v197h167v-197h480v-243h-480v-306q170 0 237.5 -9.5t134.5 -43.5q108 -55 152 -174q33 -91 33 -187q0 -159 -88 -271q-50 -64 -120.5 -94.5
t-175.5 -34.5q-58 -2 -173 -2v-201h-167v201h-494v243h494zM798 244q79 0 121 10q50 12 81.5 54t31.5 95q0 98 -84 144q-43 23 -150 26v-329zM631 1122q-70 -1 -117 -7q-121 -16 -121 -144q0 -126 136 -150q23 -4 102 -5v306z" />
    <glyph glyph-name="percent" unicode="%" horiz-adv-x="1808" 
d="M442 1371q186 0 276.5 -85t90.5 -260q0 -345 -348 -345q-380 0 -380 347q0 174 88 258t273 85zM440 1223q-77 0 -117.5 -49t-40.5 -141q0 -107 40 -155.5t130 -48.5q81 0 118.5 49t37.5 153q0 190 -168 192zM1089 1365h174l-552 -1365h-174zM1360 683q186 0 276.5 -85.5
t90.5 -260.5q0 -345 -348 -345q-380 0 -380 348q0 174 88 258t273 85zM1358 535q-158 0 -158 -191q0 -107 40.5 -155.5t129.5 -48.5q81 0 118.5 49t37.5 153q0 191 -168 193z" />
    <glyph glyph-name="ampersand" unicode="&#x26;" horiz-adv-x="1537" 
d="M1510 804v-243h-190q-101 -315 -261.5 -442t-457.5 -127q-220 0 -335 70q-97 58 -138 156q-36 88 -36 179q0 103 45.5 177.5t126.5 104.5q-84 53 -126 108q-66 88 -66 216q0 160 106 266q54 54 131.5 75t223.5 21h457v-243h-390q-195 0 -195 -153q0 -72 46 -118.5
t117 -46.5h99v-243h-45q-73 0 -103 -5t-52 -21q-55 -40 -55 -126q0 -88 54.5 -129.5t169.5 -41.5q159 0 248 76t129 247h-198v243h695z" />
    <glyph glyph-name="quotesingle" unicode="'" horiz-adv-x="443" 
d="M314 816h-186v549h186v-549z" />
    <glyph glyph-name="parenleft" unicode="(" horiz-adv-x="871" 
d="M802 1561v-227q-241 -13 -333 -185q-86 -164 -86 -491q0 -348 129 -495q50 -57 115.5 -84.5t174.5 -38.5v-228q-199 14 -313 61q-400 165 -400 801q0 488 246 721q134 127 317 153q54 8 150 13z" />
    <glyph glyph-name="parenright" unicode=")" horiz-adv-x="871" 
d="M68 1561q202 -11 297 -53q211 -92 320 -324q96 -206 96 -511q0 -493 -242 -703q-85 -73 -193 -109.5t-278 -48.5v228q109 11 175 38.5t115 84.5q129 147 129 495q0 351 -97 507.5t-322 168.5v227z" />
    <glyph glyph-name="asterisk" unicode="*" horiz-adv-x="751" 
d="M267 776l-131 95l111 152l-186 56l58 152l181 -60l-6 194h162l-6 -194l181 60l58 -152l-186 -56l111 -152l-131 -95l-108 156z" />
    <glyph glyph-name="plus" unicode="+" horiz-adv-x="1146" 
d="M75 809h382v364h231v-364h382v-224h-382v-365h-231v365h-382v224z" />
    <glyph glyph-name="comma" unicode="," horiz-adv-x="479" 
d="M373 266v-237l-158 -309h-125l125 280h-90v266h248z" />
    <glyph glyph-name="hyphen" unicode="-" horiz-adv-x="478" 
d="M478 652v-246h-478v246h478z" />
    <glyph glyph-name="period" unicode="." horiz-adv-x="459" 
d="M353 266v-266h-248v266h248z" />
    <glyph glyph-name="slash" unicode="/" horiz-adv-x="1092" 
d="M171 -188h-256l1005 1741h256z" />
    <glyph glyph-name="zero" unicode="0" horiz-adv-x="1484" 
d="M736 1373q385 0 544 -205q136 -174 136 -486q0 -370 -180 -540q-160 -150 -463 -150q-407 0 -578 224q-127 166 -127 470q0 350 162.5 517t505.5 170zM730 1144q-94 0 -168 -39.5t-114 -110.5q-26 -46 -43 -130.5t-17 -165.5q0 -92 17.5 -184.5t45.5 -143.5
q79 -148 306 -148q125 0 193 50q95 70 124 208q22 106 22 214q0 104 -24.5 195t-66.5 144q-40 51 -113.5 80.5t-161.5 30.5z" />
    <glyph glyph-name="one" unicode="1" horiz-adv-x="570" 
d="M430 0h-290v1365h290v-1365z" />
    <glyph glyph-name="two" unicode="2" horiz-adv-x="1354" 
d="M365 242h892v-242h-1182v363q-3 229 115 349q55 54 120.5 72t205.5 18h223q112 0 161 28q73 42 73 126q0 92 -68 135q-51 32 -166 32h-642v242h703q262 0 366 -87q60 -50 93.5 -132.5t33.5 -178.5q0 -119 -41 -210.5t-114 -134.5q-105 -62 -318 -62h-193
q-103 0 -153.5 -13t-74.5 -45q-32 -34 -34 -139v-121z" />
    <glyph glyph-name="three" unicode="3" horiz-adv-x="1268" 
d="M68 0v242h585q122 0 165 35q52 42 52 126q0 103 -68 142q-42 25 -149 25h-456v242h456q129 0 169 32q47 38 47 120q0 90 -62 132q-23 17 -53 22t-101 5h-585v242h636q136 -1 173.5 -5t83.5 -21q105 -39 168 -142q60 -98 60 -208q0 -191 -182 -296q183 -119 183 -331
q0 -195 -147 -289q-66 -43 -143 -58t-231 -15h-601z" />
    <glyph glyph-name="four" unicode="4" horiz-adv-x="1446" 
d="M51 237v289l770 839h383v-886h180v-242h-180v-237h-290v237h-863zM376 479h538v584z" />
    <glyph glyph-name="five" unicode="5" horiz-adv-x="1385" 
d="M1241 1365v-242h-833v-311h433q127 0 202.5 -17t127.5 -57q143 -110 143 -319q0 -263 -220 -365q-117 -54 -378 -54h-598v242h598q124 0 190 21q40 13 64 51t24 90q0 56 -27 98.5t-70 54.5q-34 10 -181 13h-598v795h1123z" />
    <glyph glyph-name="six" unicode="6" horiz-adv-x="1416" 
d="M394 804h459q157 0 231.5 -15.5t126.5 -58.5q133 -109 133 -307q0 -232 -202 -355q-125 -76 -385 -76q-185 0 -298 32.5t-195 108.5q-101 96 -151 255q-45 147 -45 297q0 229 94 412q96 187 289 239q106 29 315 29h504v-242h-417q-273 4 -355 -53q-49 -35 -76 -104
t-28 -162zM394 562q1 -150 59 -237q39 -59 106.5 -81.5t202.5 -22.5q82 0 128.5 10.5t79.5 35.5q54 41 54 127q0 90 -65 137q-43 31 -155 31h-410z" />
    <glyph glyph-name="seven" unicode="7" horiz-adv-x="1294" 
d="M1246 1365v-242l-829 -1123h-355l858 1123h-865v242h1191z" />
    <glyph glyph-name="eight" unicode="8" horiz-adv-x="1448" 
d="M283 681q-112 68 -158 142.5t-46 188.5q0 244 221 326q92 35 393 35q225 0 314 -7t146 -29q114 -45 173 -157q44 -86 44 -185q0 -221 -210 -314q93 -52 132 -99q71 -89 71 -216q0 -151 -115 -269q-58 -60 -164.5 -82.5t-326.5 -22.5q-143 0 -269 5q-190 8 -289 99
q-121 112 -121 264q0 123 71 214q40 51 134 107zM723 1144q-178 0 -229 -18q-95 -33 -95 -153q0 -132 102 -160q28 -8 223 -12q156 3 186 5.5t55 11.5q85 33 85 149q0 132 -114 163q-49 14 -213 14zM721 575q-179 0 -230 -20q-92 -35 -92 -157q0 -136 100 -165
q28 -8 222 -12q154 3 184 5.5t54 12.5q84 34 84 155q0 134 -112 167q-49 14 -210 14z" />
    <glyph glyph-name="nine" unicode="9" horiz-adv-x="1416" 
d="M1022 561h-459q-157 0 -231.5 15.5t-126.5 58.5q-133 109 -133 307q0 232 202 355q125 76 385 76q185 0 298 -32.5t195 -108.5q101 -96 151 -256q45 -146 45 -296q0 -228 -94 -412q-96 -188 -289 -239q-106 -29 -315 -29h-504v242h417q274 -4 355 53q49 35 76 104t28 162
zM1022 803q-1 150 -59 237q-38 58 -105.5 81t-196.5 23q-149 0 -200 -34q-69 -45 -69 -142q0 -87 66 -134q42 -31 154 -31h410z" />
    <glyph glyph-name="colon" unicode=":" horiz-adv-x="459" 
d="M353 266v-266h-248v266h248zM353 746v-266h-248v266h248z" />
    <glyph glyph-name="semicolon" unicode=";" horiz-adv-x="479" 
d="M373 746v-266h-248v266h248zM373 266v-237l-158 -309h-125l125 280h-90v266h248z" />
    <glyph glyph-name="less" unicode="&#x3c;" horiz-adv-x="1024" 
d="M955 1292v-315l-552 -287l552 -288v-313l-887 470v265z" />
    <glyph glyph-name="equal" unicode="=" horiz-adv-x="1146" 
d="M75 1005h995v-224h-995v224zM75 612h995v-224h-995v224z" />
    <glyph glyph-name="greater" unicode="&#x3e;" horiz-adv-x="1024" 
d="M69 89v315l552 287l-551 289v312l886 -469v-265z" />
    <glyph glyph-name="question" unicode="?" horiz-adv-x="1395" 
d="M122 1365h712q158 0 223 -13.5t127 -58.5q73 -53 108 -135t35 -200q0 -141 -64 -242q-53 -82 -140.5 -116.5t-244.5 -34.5h-180q-148 0 -197 -32.5t-49 -129.5v-70h-290v98q1 210 110 300q51 41 128.5 58.5t208.5 17.5h167q130 0 175 28q57 36 57 134q0 111 -85 140
q-40 14 -189 14h-612v242zM452 232v-232h-290v232h290z" />
    <glyph glyph-name="at" unicode="@" horiz-adv-x="1624" 
d="M1204 149v-149h-462q-180 0 -293 33q-178 52 -280 238q-101 183 -101 412t101 412q96 175 280 240q140 50 383 50q347 0 515 -120q97 -68 152 -185q56 -120 56 -252q0 -155 -75 -291q-49 -88 -114 -139t-171 -86h-435q-121 0 -163 8.5t-87 42.5q-94 72 -94 218
q0 125 42 228t116 159q60 46 132.5 66t178.5 20h305l-85 -602h86q42 30 67 69q83 131 83 301q0 111 -40.5 202t-110.5 137q-113 75 -357 75q-295 0 -407 -118q-60 -63 -97 -183t-37 -252q0 -168 58 -305q57 -135 150.5 -182t304.5 -47h399zM937 888h-32q-142 0 -195 -70
q-55 -74 -55 -193q0 -77 43 -112t139 -35h42z" />
    <glyph glyph-name="A" unicode="A" horiz-adv-x="1480" 
d="M8 0l565 1365h335l565 -1365h-341l-132 316h-519l-132 -316h-341zM741 1037l-195 -478h389z" />
    <glyph glyph-name="B" unicode="B" horiz-adv-x="1431" 
d="M140 0v1365h772q181 0 264 -41q96 -49 145 -159q35 -76 35 -158q0 -106 -56.5 -198t-142.5 -127q198 -91 198 -321q0 -134 -63 -224q-54 -78 -140.5 -107.5t-256.5 -29.5h-755zM430 804h396q62 0 90.5 6.5t54.5 26.5q64 49 64 135q0 83 -60 122q-43 28 -143 28h-402v-318
zM430 243h396q62 0 91 6.5t54 26.5q64 49 64 135q0 83 -60 122q-43 28 -143 28h-402v-318z" />
    <glyph glyph-name="C" unicode="C" horiz-adv-x="1243" 
d="M1177 243v-243h-476q-136 0 -208 14q-251 49 -357 281q-70 155 -70 384q0 275 107 448q77 124 206.5 181t335.5 57h462v-243h-429q-195 0 -286 -104q-75 -86 -75 -312q0 -302 117 -397q82 -66 255 -66h418z" />
    <glyph glyph-name="D" unicode="D" horiz-adv-x="1468" 
d="M140 1365h579q217 0 336 -43q219 -79 292 -292q56 -163 56 -350q0 -185 -53 -349q-53 -168 -177 -247q-78 -50 -170.5 -67t-283.5 -17h-579v1365zM430 1122v-879h289q190 0 264 85q45 52 72.5 148.5t27.5 205.5q0 120 -32.5 221t-86.5 150q-78 69 -245 69h-289z" />
    <glyph glyph-name="E" unicode="E" horiz-adv-x="1254" 
d="M1164 1365v-243h-379q-149 0 -216.5 -20.5t-112.5 -79.5q-30 -40 -41 -81t-19 -140h768v-243h-768q15 -177 103 -246t299 -69h366v-243h-379q-154 0 -271 19q-184 30 -293 161q-155 188 -155 510q0 357 219 555q75 67 160 93.5t228 26.5h491z" />
    <glyph glyph-name="F" unicode="F" horiz-adv-x="1303" 
d="M1228 807v-243h-814v-564h-290v713q3 307 59 404q69 134 201.5 191t371.5 57h472v-243h-435q-203 -3 -261 -33q-115 -47 -118 -209v-73h814z" />
    <glyph glyph-name="G" unicode="G" horiz-adv-x="1416" 
d="M640 811h671v-811h-610q-159 0 -251.5 23.5t-168.5 82.5q-215 166 -215 571q0 266 102 441q76 129 206.5 188t340.5 59h596v-243h-563q-182 0 -265 -80q-97 -94 -97 -337q0 -125 25.5 -225.5t69.5 -149.5q40 -45 108 -66t169 -21h263v325h-381v243z" />
    <glyph glyph-name="H" unicode="H" horiz-adv-x="1387" 
d="M1248 1365v-1365h-290v565h-528v-565h-290v1365h290v-557h528v557h290z" />
    <glyph glyph-name="I" unicode="I" horiz-adv-x="569" 
d="M140 0v1365h290v-1365h-290z" />
    <glyph glyph-name="J" unicode="J" horiz-adv-x="1091" 
d="M30 0v243h279q132 0 194 10t96 37q45 35 61.5 100.5t16.5 208.5v766h290v-766q0 -144 -10.5 -218t-40.5 -139q-78 -174 -284 -224q-98 -18 -293 -18h-309z" />
    <glyph glyph-name="K" unicode="K" horiz-adv-x="1350" 
d="M430 1365v-1365h-290v1365h290zM440 691l523 674h382l-570 -674l543 -691h-383z" />
    <glyph glyph-name="L" unicode="L" horiz-adv-x="1091" 
d="M124 1365h290v-766q6 -146 13 -194q14 -93 89.5 -127.5t265.5 -34.5h279v-243h-309q-219 -1 -318 25q-226 66 -286 287q-23 85 -24 287v766z" />
    <glyph glyph-name="M" unicode="M" horiz-adv-x="1822" 
d="M560 1365l340 -1065l358 1065h424v-1365h-277v1025l-357 -1025h-299l-337 1025v-1025h-277v1365h425z" />
    <glyph glyph-name="N" unicode="N" horiz-adv-x="1471" 
d="M417 1001v-1001h-277v1365h372l543 -1017v1017h277v-1365h-358z" />
    <glyph glyph-name="O" unicode="O" horiz-adv-x="1480" 
d="M740 1374q205 0 360 -70q183 -83 256 -279q58 -154 58 -362t-71 -361q-87 -184 -269 -256q-136 -54 -313 -54q-230 0 -401 86q-143 72 -218.5 225.5t-75.5 372.5q0 390 194 556q164 140 480 142zM742 1144q-201 0 -288 -131q-68 -102 -68 -328q0 -240 86 -353
q85 -111 271 -111q180 0 265.5 112.5t85.5 348.5q0 214 -69 327q-81 134 -283 135z" />
    <glyph glyph-name="P" unicode="P" horiz-adv-x="1404" 
d="M430 477v-477h-290v1365h681q186 0 267 -26q134 -45 212 -187q58 -105 58 -231q0 -104 -38 -197t-106 -153q-60 -53 -129 -73.5t-188 -20.5h-467zM430 720h396q106 0 149 34q64 51 64 177q0 138 -97 177q-35 14 -110 14h-402v-402z" />
    <glyph glyph-name="Q" unicode="Q" horiz-adv-x="1550" 
d="M1496 243v-243h-512l-112 1q-171 0 -235 5t-152 25q-230 53 -337 262q-82 160 -82 383q0 389 194 556q166 142 480 142q207 0 360 -70q97 -44 157.5 -110t98.5 -170q60 -162 60 -332q0 -262 -153 -449h233zM742 1144q-180 0 -267.5 -109t-87.5 -333q0 -195 57 -314
q77 -159 299 -159q209 0 289 145q62 112 62 323q0 191 -75 312q-84 134 -277 135z" />
    <glyph glyph-name="R" unicode="R" horiz-adv-x="1464" 
d="M430 519v-519h-290v1365h666q287 0 401 -73q77 -49 119.5 -129.5t42.5 -177.5q0 -195 -99 -300q-61 -64 -162 -98q80 -27 121 -59t74 -94q25 -48 35.5 -93.5t17.5 -134.5q12 -147 33 -206h-326q-15 48 -30 194q-12 120 -43.5 183.5t-95.5 99.5q-79 43 -230 42h-234z
M430 762h408q102 0 145 30q65 46 65 158q0 125 -98 160q-34 12 -112 12h-408v-360z" />
    <glyph glyph-name="S" unicode="S" horiz-adv-x="1424" 
d="M136 0v243h623q150 0 200 30q72 43 72 129q0 99 -84 145q-48 26 -153 26h-253q-232 0 -334 84q-64 53 -100 133.5t-36 171.5q0 144 84 263q82 115 263 134q61 6 182 6h677v-243h-611q-137 -1 -182 -12q-92 -23 -92 -139q0 -98 77 -132q52 -23 172 -23h219q168 0 251 -29
q145 -49 199 -172q44 -99 44 -212q0 -124 -57 -223q-80 -140 -241 -167q-78 -13 -234 -13h-686z" />
    <glyph glyph-name="T" unicode="T" horiz-adv-x="1197" 
d="M445 1122h-435v243h1177v-243h-452v-1122h-290v1122z" />
    <glyph glyph-name="U" unicode="U" horiz-adv-x="1440" 
d="M414 1365v-818q0 -98 16 -152.5t55 -92.5q87 -84 240 -84q98 0 171 33t101 90q29 58 29 206v818h290v-804q0 -159 -33 -263t-104 -167q-161 -142 -459 -142q-316 0 -462 139q-76 73 -105 162t-29 250v825h290z" />
    <glyph glyph-name="V" unicode="V" horiz-adv-x="1472" 
d="M1468 1365l-597 -1365h-291l-576 1365h327l402 -1027l408 1027h327z" />
    <glyph glyph-name="W" unicode="W" horiz-adv-x="2166" 
d="M327 1365l308 -1027l286 1027h325l286 -1027l307 1027h300l-442 -1365h-331l-283 986l-283 -986h-331l-442 1365h300z" />
    <glyph glyph-name="X" unicode="X" horiz-adv-x="1305" 
d="M475 690l-448 675h355l269 -449l292 449h352l-464 -675l464 -690h-343l-301 468l-294 -468h-347z" />
    <glyph glyph-name="Y" unicode="Y" horiz-adv-x="1339" 
d="M510 599l-505 766h340l313 -533l330 533h345l-533 -778v-587h-290v599z" />
    <glyph glyph-name="Z" unicode="Z" horiz-adv-x="1340" 
d="M939 1122h-862v243h1187v-251l-831 -871h831v-243h-1187v236z" />
    <glyph glyph-name="bracketleft" unicode="[" horiz-adv-x="722" 
d="M653 1553v-218h-70q-116 0 -145 -26.5t-29 -132.5v-987q0 -64 6 -91t23 -41q32 -27 145 -27h70v-218h-191q-112 0 -165.5 12t-95.5 47q-44 36 -60.5 87.5t-16.5 152.5v1143q0 101 16.5 152t60.5 88q41 35 95 47t166 12h191z" />
    <glyph glyph-name="backslash" unicode="\" horiz-adv-x="1092" 
d="M920 -188l-1005 1741h256l1005 -1741h-256z" />
    <glyph glyph-name="bracketright" unicode="]" horiz-adv-x="722" 
d="M69 1553h192q111 0 165 -12.5t95 -46.5q44 -37 60.5 -88.5t16.5 -151.5v-1143q0 -100 -16.5 -152t-60.5 -88q-41 -35 -95 -47t-165 -12h-192v218h70q116 0 145 26.5t29 132.5v987q0 64 -6 91t-24 41q-31 27 -144 27h-70v218z" />
    <glyph glyph-name="asciicircum" unicode="^" horiz-adv-x="1024" 
d="M309 714h-280l308 659h351l307 -659h-279l-204 445z" />
    <glyph glyph-name="underscore" unicode="_" horiz-adv-x="1024" 
d="M0 -79h1024v-224h-1024v224z" />
    <glyph glyph-name="grave" unicode="`" horiz-adv-x="1024" 
d="M198 1382h242l188 -267h-176z" />
    <glyph glyph-name="a" unicode="a" horiz-adv-x="1219" 
d="M824 606q0 105 -42.5 141.5t-166.5 36.5h-464v213h464q124 0 171.5 -4.5t95.5 -19.5q227 -86 216 -411v-562h-578q-155 0 -214.5 9t-104.5 39q-122 82 -122 247q0 101 48.5 179.5t127.5 106.5q70 25 233 25h336zM824 393h-317l-46 1q-47 0 -74.5 -25t-27.5 -67
q0 -49 33.5 -69t114.5 -20h317v180z" />
    <glyph glyph-name="b" unicode="b" horiz-adv-x="1222" 
d="M409 997h243q160 0 260 -49q137 -68 197 -207q44 -104 44 -229q0 -303 -220 -439q-68 -42 -142.5 -57.5t-209.5 -15.5h-446v1365h274v-368zM409 784v-571h203q130 0 194 80q67 85 67 211q0 280 -261 280h-203z" />
    <glyph glyph-name="c" unicode="c" horiz-adv-x="1044" 
d="M967 997v-213h-329q-164 0 -229 -74q-61 -70 -61 -212q0 -161 100 -233q41 -30 89 -41t134 -11h296v-213h-375q-151 0 -239 30.5t-157 107.5q-128 143 -128 363q0 266 154 398q61 53 147 75.5t223 22.5h375z" />
    <glyph glyph-name="d" unicode="d" horiz-adv-x="1212" 
d="M802 997v368h274v-1365h-472q-144 0 -216 22q-176 55 -262 217q-58 110 -58 266q0 257 172 399q112 93 304 93h258zM802 213v571h-198q-131 0 -199 -87q-58 -75 -58 -192q0 -169 97 -242q67 -50 160 -50h198z" />
    <glyph glyph-name="e" unicode="e" horiz-adv-x="1040" 
d="M949 606v-213h-578q8 -98 63.5 -139t179.5 -41h335v-213h-365q-119 0 -193.5 21t-141.5 72q-181 140 -181 418q0 182 96 316q66 92 158 131t242 39h385v-213h-365q-112 0 -157.5 -38t-55.5 -140h578z" />
    <glyph glyph-name="f" unicode="f" horiz-adv-x="779" 
d="M218 784h-180v213h180v60q0 162 68.5 235t220.5 73h241v-213h-139q-120 5 -117 -110v-45h257v-213h-257v-784h-274v784z" />
    <glyph glyph-name="g" unicode="g" horiz-adv-x="1226" 
d="M1091 997v-990q0 -84 -19 -149.5t-57 -111.5q-46 -57 -113 -79t-194 -22h-547v213h510q90 0 118 27.5t28 114.5h-252q-121 0 -199.5 25.5t-142.5 85.5q-150 140 -150 388q0 283 182 413q66 46 139 65.5t185 19.5h512zM817 784h-227q-237 0 -237 -286q0 -140 64 -212.5
t187 -72.5h213v571z" />
    <glyph glyph-name="h" unicode="h" horiz-adv-x="1222" 
d="M409 1365v-368h282q124 0 195 -19.5t120 -67.5q93 -86 94 -289v-621h-274v567q0 80 -7.5 114t-29.5 58q-41 44 -157 45h-223v-784h-274v1365h274z" />
    <glyph glyph-name="i" unicode="i" horiz-adv-x="545" 
d="M135 997h274v-997h-274v997zM135 1099v266h274v-266h-274z" />
    <glyph glyph-name="j" unicode="j" horiz-adv-x="610" 
d="M474 997v-918q0 -143 -27 -224t-92 -132q-91 -72 -284 -78h-120v208h69q119 2 152 45q17 21 22.5 52t5.5 107v940h274zM200 1107v258h274v-258h-274z" />
    <glyph glyph-name="k" unicode="k" horiz-adv-x="1114" 
d="M409 1365v-762l368 394h306l-389 -394h75q142 0 197.5 -84.5t55.5 -297.5v-221h-274v234q0 94 -30.5 125.5t-121.5 31.5h-187v-391h-274v1365h274z" />
    <glyph glyph-name="l" unicode="l" horiz-adv-x="545" 
d="M409 0h-274v1365h274v-1365z" />
    <glyph glyph-name="m" unicode="m" horiz-adv-x="1684" 
d="M135 997h1008q138 0 209.5 -20t119.5 -72q90 -98 90 -270v-635h-274v592q0 72 -6.5 100t-28.5 51q-42 41 -129 41h-146v-784h-274v784h-295v-784h-274v997z" />
    <glyph glyph-name="n" unicode="n" horiz-adv-x="1185" 
d="M135 997h529q118 0 181 -17t113 -63q105 -95 105 -303v-614h-274v645q0 74 -33 106.5t-108 32.5h-239v-784h-274v997z" />
    <glyph glyph-name="o" unicode="o" horiz-adv-x="1192" 
d="M594 1012q276 0 408 -160q121 -146 121 -366q0 -234 -152 -373q-139 -128 -381 -128q-250 0 -392 143q-130 131 -130 377q0 210 125 349q139 155 401 158zM596 802q-247 0 -247 -307q0 -125 40 -190q67 -110 209 -110q244 0 244 305q0 299 -246 302z" />
    <glyph glyph-name="p" unicode="p" horiz-adv-x="1208" 
d="M135 997h479q140 0 212 -17.5t136 -67.5q178 -140 178 -429q0 -219 -131 -355q-65 -67 -150 -97.5t-208 -30.5h-242v-375h-274v1372zM409 784v-571h168q133 0 196 57q86 77 86 234q0 135 -68 207.5t-195 72.5h-187z" />
    <glyph glyph-name="q" unicode="q" horiz-adv-x="1222" 
d="M1086 997v-1372h-274v375h-264q-228 0 -352 134q-128 138 -128 353q0 285 179 425q64 50 136 67.5t211 17.5h492zM812 784h-200q-127 0 -194.5 -73t-67.5 -211q0 -141 69.5 -214t202.5 -73h190v571z" />
    <glyph glyph-name="r" unicode="r" horiz-adv-x="959" 
d="M135 997h406q124 0 192.5 -17t114.5 -59q45 -41 63 -102t18 -175v-97h-263v54q0 106 -37.5 144.5t-140.5 38.5h-79v-784h-274v997z" />
    <glyph glyph-name="s" unicode="s" horiz-adv-x="1124" 
d="M1000 997v-213h-486q-83 0 -106 -8q-47 -16 -47 -80q0 -53 45 -81q24 -16 133 -16h162q155 0 245 -67q100 -74 100 -217q0 -108 -60 -199q-46 -70 -111 -93t-215 -23h-567v213h488q91 0 124 3q73 8 73 82q0 62 -48 85q-26 13 -120 13h-166q-97 0 -149.5 12t-97.5 44
q-55 40 -87 108t-32 147q0 150 109 238q65 52 227 52h586z" />
    <glyph glyph-name="t" unicode="t" horiz-adv-x="789" 
d="M207 997v368h274v-368h254v-213h-254v-362q0 -127 23 -160q35 -49 123 -49h108v-213h-199q-178 0 -253.5 86t-75.5 288v410h-174v213h174z" />
    <glyph glyph-name="u" unicode="u" horiz-adv-x="1196" 
d="M787 213v784h274v-997h-540q-118 0 -181 17t-113 63q-105 95 -105 304v613h274v-641q0 -67 35 -105t97 -38h259z" />
    <glyph glyph-name="v" unicode="v" horiz-adv-x="1149" 
d="M568 311l278 686h290l-430 -997h-294l-398 997h299z" />
    <glyph glyph-name="w" unicode="w" horiz-adv-x="1684" 
d="M706 213v784h274v-784h295v784h274v-997h-1008q-138 0 -209.5 20t-119.5 72q-90 98 -90 270v635h274v-591q0 -73 6.5 -101t28.5 -51q42 -41 128 -41h147z" />
    <glyph glyph-name="x" unicode="x" horiz-adv-x="1076" 
d="M383 493l-360 504h307l210 -295l204 295h323l-373 -504l373 -493h-323l-204 285l-210 -285h-322z" />
    <glyph glyph-name="y" unicode="y" horiz-adv-x="1175" 
d="M789 213v784h274v-977q0 -195 -102.5 -285t-325.5 -90h-490v213h490q88 1 115 20q20 11 26.5 31t12.5 91h-245q-422 -10 -399 440v557h274v-530q0 -155 28 -204.5t116 -49.5h226z" />
    <glyph glyph-name="z" unicode="z" horiz-adv-x="1079" 
d="M640 784h-577v213h941v-206l-577 -578h577v-213h-941v206z" />
    <glyph glyph-name="braceleft" unicode="{" horiz-adv-x="779" 
d="M342 683q68 -38 95.5 -95t27.5 -159v-202q0 -104 3 -127.5t19 -40.5q24 -28 102 -29h120v-218h-139q-141 0 -202 13.5t-110 55.5q-76 65 -77 226v297q0 90 -21.5 130.5t-77.5 53.5v189q55 13 77 53.5t22 130.5v297q1 174 92 237q46 34 101 46t163 12h172v-218h-120
q-79 0 -104 -31q-14 -18 -17 -41t-3 -125v-202q0 -102 -27 -158t-96 -95z" />
    <glyph glyph-name="bar" unicode="|" horiz-adv-x="1024" 
d="M353 1365h318v-1706h-318v1706z" />
    <glyph glyph-name="braceright" unicode="}" horiz-adv-x="779" 
d="M436 683q-69 39 -96 95t-27 158v202q0 103 -3 125.5t-17 40.5q-25 31 -104 31h-120v218h172q115 0 174 -14.5t105 -54.5q76 -64 77 -226v-297q0 -90 21.5 -130.5t77.5 -53.5v-189q-56 -13 -77.5 -53.5t-21.5 -130.5v-297q-1 -173 -92 -237q-48 -36 -105.5 -47t-191.5 -11
h-139v218h120q78 1 102 29q15 17 18.5 40.5t3.5 127.5v202q0 102 27.5 159t95.5 95z" />
    <glyph glyph-name="asciitilde" unicode="~" horiz-adv-x="1365" 
d="M344 1127l-154 128q113 282 307 282q68 0 230 -68q82 -35 106.5 -43t48.5 -8q79 0 145 125l154 -128q-53 -128 -110 -190q-83 -89 -212 -89q-42 0 -80 12t-147 59q-102 44 -148 44q-74 0 -140 -124z" />
    <glyph glyph-name="Adieresis" unicode="&#xc4;" horiz-adv-x="1480" 
d="M8 0l565 1365h335l565 -1365h-341l-132 316h-519l-132 -316h-341zM741 1037l-195 -478h389zM1051 1700v-225h-221v225h221zM651 1700v-225h-221v225h221z" />
    <glyph glyph-name="Aring" unicode="&#xc5;" horiz-adv-x="1480" 
d="M8 0l565 1365h335l565 -1365h-341l-132 316h-519l-132 -316h-341zM741 1037l-195 -478h389zM744 1839q83 0 142 -65q50 -56 50 -131q0 -87 -65 -145q-56 -51 -130 -51q-87 0 -146 65q-50 56 -50 133q0 84 65 143q55 51 134 51zM742 1722q-34 0 -57 -22.5t-23 -55.5
q0 -34 22.5 -57t56.5 -23q32 0 55 23t23 56t-22 55.5t-55 23.5z" />
    <glyph glyph-name="Ccedilla" unicode="&#xc7;" horiz-adv-x="1243" 
d="M789 0v-85h22q96 0 137 -27q62 -41 62 -137q0 -112 -84 -144q-42 -17 -130 -17h-172v111h144q47 0 65.5 13t18.5 46q0 35 -17.5 48t-64.5 13h-96v179q-109 0 -181 14q-251 49 -357 281q-70 155 -70 384q0 276 107 448q77 124 206.5 181t334.5 57h463v-243h-429
q-195 0 -286 -104q-75 -86 -75 -312q0 -302 117 -397q82 -66 254 -66h419v-243h-388z" />
    <glyph glyph-name="Eacute" unicode="&#xc9;" horiz-adv-x="1254" 
d="M1164 1365v-243h-379q-149 0 -216.5 -20.5t-112.5 -79.5q-30 -40 -41 -81t-19 -140h768v-243h-768q15 -177 103 -246t299 -69h366v-243h-379q-154 0 -271 19q-184 30 -293 161q-155 188 -155 510q0 357 219 555q75 67 160 93.5t228 26.5h491zM1059 1720l-257 -252h-180
l188 252h249z" />
    <glyph glyph-name="Ntilde" unicode="&#xd1;" horiz-adv-x="1471" 
d="M417 1001v-1001h-277v1365h372l543 -1017v1017h277v-1365h-358zM1088 1696q-26 -222 -191 -222q-69 0 -232 63q-26 10 -50 10q-63 0 -76 -69h-127q31 222 194 222q52 0 170 -42q82 -30 111 -30q59 0 74 68h127z" />
    <glyph glyph-name="Odieresis" unicode="&#xd6;" horiz-adv-x="1480" 
d="M740 1374q205 0 360 -70q183 -83 256 -279q58 -154 58 -362t-71 -361q-87 -184 -269 -256q-136 -54 -313 -54q-230 0 -401 86q-143 72 -218.5 225.5t-75.5 372.5q0 390 194 556q164 140 480 142zM742 1144q-201 0 -288 -131q-68 -102 -68 -328q0 -240 86 -353
q85 -111 271 -111q180 0 265.5 112.5t85.5 348.5q0 214 -69 327q-81 134 -283 135zM1050 1700v-225h-221v225h221zM650 1700v-225h-221v225h221z" />
    <glyph glyph-name="Udieresis" unicode="&#xdc;" horiz-adv-x="1440" 
d="M414 1365v-818q0 -98 16 -152.5t55 -92.5q87 -84 240 -84q98 0 171 33t101 90q29 58 29 206v818h290v-804q0 -159 -33 -263t-104 -167q-161 -142 -459 -142q-316 0 -462 139q-76 73 -105 162t-29 250v825h290zM1030 1700v-225h-221v225h221zM630 1700v-225h-221v225h221z
" />
    <glyph glyph-name="aacute" unicode="&#xe1;" horiz-adv-x="1219" 
d="M824 606q0 105 -42.5 141.5t-166.5 36.5h-464v213h464q124 0 171.5 -4.5t95.5 -19.5q227 -86 216 -411v-562h-578q-155 0 -214.5 9t-104.5 39q-122 82 -122 247q0 101 48.5 179.5t127.5 106.5q70 25 233 25h336zM824 393h-317l-46 1q-47 0 -74.5 -25t-27.5 -67
q0 -49 33.5 -69t114.5 -20h317v180zM913 1382l-254 -267h-176l188 267h242z" />
    <glyph glyph-name="agrave" unicode="&#xe0;" horiz-adv-x="1219" 
d="M824 606q0 105 -42.5 141.5t-166.5 36.5h-464v213h464q124 0 171.5 -4.5t95.5 -19.5q227 -86 216 -411v-562h-578q-155 0 -214.5 9t-104.5 39q-122 82 -122 247q0 101 48.5 179.5t127.5 106.5q70 25 233 25h336zM824 393h-317l-46 1q-47 0 -74.5 -25t-27.5 -67
q0 -49 33.5 -69t114.5 -20h317v180zM332 1382h242l188 -267h-176z" />
    <glyph glyph-name="acircumflex" unicode="&#xe2;" horiz-adv-x="1219" 
d="M824 606q0 105 -42.5 141.5t-166.5 36.5h-464v213h464q124 0 171.5 -4.5t95.5 -19.5q227 -86 216 -411v-562h-578q-155 0 -214.5 9t-104.5 39q-122 82 -122 247q0 101 48.5 179.5t127.5 106.5q70 25 233 25h336zM824 393h-317l-46 1q-47 0 -74.5 -25t-27.5 -67
q0 -49 33.5 -69t114.5 -20h317v180zM616 1278l-130 -163h-198l218 267h220l217 -267h-197z" />
    <glyph glyph-name="adieresis" unicode="&#xe4;" horiz-adv-x="1219" 
d="M824 606q0 105 -42.5 141.5t-166.5 36.5h-464v213h464q124 0 171.5 -4.5t95.5 -19.5q227 -86 216 -411v-562h-578q-155 0 -214.5 9t-104.5 39q-122 82 -122 247q0 101 48.5 179.5t127.5 106.5q70 25 233 25h336zM824 393h-317l-46 1q-47 0 -74.5 -25t-27.5 -67
q0 -49 33.5 -69t114.5 -20h317v180zM916 1352v-225h-218v225h218zM533 1352v-225h-218v225h218z" />
    <glyph glyph-name="atilde" unicode="&#xe3;" horiz-adv-x="1219" 
d="M824 606q0 105 -42.5 141.5t-166.5 36.5h-464v213h464q124 0 171.5 -4.5t95.5 -19.5q227 -86 216 -411v-562h-578q-155 0 -214.5 9t-104.5 39q-122 82 -122 247q0 101 48.5 179.5t127.5 106.5q70 25 233 25h336zM824 393h-317l-46 1q-47 0 -74.5 -25t-27.5 -67
q0 -49 33.5 -69t114.5 -20h317v180zM951 1348q-25 -222 -190 -222q-64 0 -163 40q-80 33 -109 33q-63 0 -76 -69h-124q31 222 193 222q54 0 161 -43q74 -30 110 -30q60 0 74 69h124z" />
    <glyph glyph-name="aring" unicode="&#xe5;" horiz-adv-x="1219" 
d="M824 606q0 105 -42.5 141.5t-166.5 36.5h-464v213h464q124 0 171.5 -4.5t95.5 -19.5q227 -86 216 -411v-562h-578q-155 0 -214.5 9t-104.5 39q-122 82 -122 247q0 101 48.5 179.5t127.5 106.5q70 25 233 25h336zM824 393h-317l-46 1q-47 0 -74.5 -25t-27.5 -67
q0 -49 33.5 -69t114.5 -20h317v180zM619 1484q84 0 143 -65q50 -56 50 -131q0 -87 -65 -145q-56 -51 -131 -51q-87 0 -146 65q-50 56 -50 133q0 84 65 143q55 51 134 51zM617 1367q-34 0 -57 -22.5t-23 -55.5q0 -34 23 -57t56 -23t56 23t23 56t-22.5 55.5t-55.5 23.5z" />
    <glyph glyph-name="ccedilla" unicode="&#xe7;" horiz-adv-x="1044" 
d="M672 0v-92h20q88 0 125 -25q57 -38 57 -125q0 -100 -77 -129q-38 -15 -118 -15h-159v100h141q33 0 47 13t14 42q0 34 -13.5 45t-54.5 11h-87v175q-128 4 -202 26.5t-134 76.5q-163 147 -163 398q0 266 154 398q61 53 147 75.5t224 22.5h374v-213h-328q-165 0 -230 -74
q-61 -70 -61 -212q0 -161 100 -233q41 -30 89 -41t134 -11h296v-213h-295z" />
    <glyph glyph-name="eacute" unicode="&#xe9;" horiz-adv-x="1040" 
d="M949 606v-213h-578q8 -98 63.5 -139t179.5 -41h335v-213h-365q-119 0 -193.5 21t-141.5 72q-181 140 -181 418q0 182 96 316q66 92 158 131t242 39h385v-213h-365q-112 0 -157.5 -38t-55.5 -140h578zM905 1382l-254 -267h-176l188 267h242z" />
    <glyph glyph-name="egrave" unicode="&#xe8;" horiz-adv-x="1040" 
d="M949 606v-213h-578q8 -98 63.5 -139t179.5 -41h335v-213h-365q-119 0 -193.5 21t-141.5 72q-181 140 -181 418q0 182 96 316q66 92 158 131t242 39h385v-213h-365q-112 0 -157.5 -38t-55.5 -140h578zM328 1382h242l188 -267h-176z" />
    <glyph glyph-name="ecircumflex" unicode="&#xea;" horiz-adv-x="1040" 
d="M949 606v-213h-578q8 -98 63.5 -139t179.5 -41h335v-213h-365q-119 0 -193.5 21t-141.5 72q-181 140 -181 418q0 182 96 316q66 92 158 131t242 39h385v-213h-365q-112 0 -157.5 -38t-55.5 -140h578zM605 1278l-130 -163h-198l218 267h220l217 -267h-197z" />
    <glyph glyph-name="edieresis" unicode="&#xeb;" horiz-adv-x="1040" 
d="M949 606v-213h-578q8 -98 63.5 -139t179.5 -41h335v-213h-365q-119 0 -193.5 21t-141.5 72q-181 140 -181 418q0 182 96 316q66 92 158 131t242 39h385v-213h-365q-112 0 -157.5 -38t-55.5 -140h578zM906 1352v-225h-218v225h218zM523 1352v-225h-218v225h218z" />
    <glyph glyph-name="iacute" unicode="&#xed;" horiz-adv-x="545" 
d="M135 997h274v-997h-274v997zM554 1382l-214 -267h-175l160 267h229z" />
    <glyph glyph-name="igrave" unicode="&#xec;" horiz-adv-x="545" 
d="M136 997h274v-997h-274v997zM-6 1382h228l161 -267h-176z" />
    <glyph glyph-name="icircumflex" unicode="&#xee;" horiz-adv-x="545" 
d="M135 997h274v-997h-274v997zM272 1283l-92 -168h-181l163 267h220l163 -267h-181z" />
    <glyph glyph-name="idieresis" unicode="&#xef;" horiz-adv-x="545" 
d="M136 997h274v-997h-274v997zM519 1352v-225h-205v225h205zM232 1352v-225h-205v225h205z" />
    <glyph glyph-name="ntilde" unicode="&#xf1;" horiz-adv-x="1185" 
d="M135 997h529q118 0 181 -17t113 -63q105 -95 105 -303v-614h-274v645q0 74 -33 106.5t-108 32.5h-239v-784h-274v997zM903 1348q-25 -222 -190 -222q-64 0 -163 40q-80 33 -109 33q-63 0 -76 -69h-124q31 222 193 222q54 0 161 -43q74 -30 110 -30q60 0 74 69h124z" />
    <glyph glyph-name="oacute" unicode="&#xf3;" horiz-adv-x="1192" 
d="M594 1012q276 0 408 -160q121 -146 121 -366q0 -234 -152 -373q-139 -128 -381 -128q-250 0 -392 143q-130 131 -130 377q0 210 125 349q139 155 401 158zM596 802q-247 0 -247 -307q0 -125 40 -190q67 -110 209 -110q244 0 244 305q0 299 -246 302zM893 1382l-254 -267
h-176l188 267h242z" />
    <glyph glyph-name="ograve" unicode="&#xf2;" horiz-adv-x="1192" 
d="M594 1012q276 0 408 -160q121 -146 121 -366q0 -234 -152 -373q-139 -128 -381 -128q-250 0 -392 143q-130 131 -130 377q0 210 125 349q139 155 401 158zM596 802q-247 0 -247 -307q0 -125 40 -190q67 -110 209 -110q244 0 244 305q0 299 -246 302zM312 1382h242
l188 -267h-176z" />
    <glyph glyph-name="ocircumflex" unicode="&#xf4;" horiz-adv-x="1192" 
d="M594 1012q276 0 408 -160q121 -146 121 -366q0 -234 -152 -373q-139 -128 -381 -128q-250 0 -392 143q-130 131 -130 377q0 210 125 349q139 155 401 158zM596 802q-247 0 -247 -307q0 -125 40 -190q67 -110 209 -110q244 0 244 305q0 299 -246 302zM596 1278l-130 -163
h-198l218 267h220l217 -267h-197z" />
    <glyph glyph-name="odieresis" unicode="&#xf6;" horiz-adv-x="1192" 
d="M594 1012q276 0 408 -160q121 -146 121 -366q0 -234 -152 -373q-139 -128 -381 -128q-250 0 -392 143q-130 131 -130 377q0 210 125 349q139 155 401 158zM596 802q-247 0 -247 -307q0 -125 40 -190q67 -110 209 -110q244 0 244 305q0 299 -246 302zM896 1352v-225h-218
v225h218zM513 1352v-225h-218v225h218z" />
    <glyph glyph-name="otilde" unicode="&#xf5;" horiz-adv-x="1192" 
d="M594 1012q276 0 408 -160q121 -146 121 -366q0 -234 -152 -373q-139 -128 -381 -128q-250 0 -392 143q-130 131 -130 377q0 210 125 349q139 155 401 158zM596 802q-247 0 -247 -307q0 -125 40 -190q67 -110 209 -110q244 0 244 305q0 299 -246 302zM940 1348
q-25 -222 -190 -222q-64 0 -163 40q-80 33 -109 33q-63 0 -76 -69h-124q31 222 193 222q54 0 161 -43q74 -30 110 -30q60 0 74 69h124z" />
    <glyph glyph-name="uacute" unicode="&#xfa;" horiz-adv-x="1196" 
d="M787 213v784h274v-997h-540q-118 0 -181 17t-113 63q-105 95 -105 304v613h274v-641q0 -67 35 -105t97 -38h259zM895 1382l-254 -267h-176l188 267h242z" />
    <glyph glyph-name="ugrave" unicode="&#xf9;" horiz-adv-x="1196" 
d="M787 213v784h274v-997h-540q-118 0 -181 17t-113 63q-105 95 -105 304v613h274v-641q0 -67 35 -105t97 -38h259zM295 1382h242l188 -267h-176z" />
    <glyph glyph-name="ucircumflex" unicode="&#xfb;" horiz-adv-x="1196" 
d="M787 213v784h274v-997h-540q-118 0 -181 17t-113 63q-105 95 -105 304v613h274v-641q0 -67 35 -105t97 -38h259zM592 1278l-130 -163h-198l218 267h220l217 -267h-197z" />
    <glyph glyph-name="udieresis" unicode="&#xfc;" horiz-adv-x="1196" 
d="M787 213v784h274v-997h-540q-118 0 -181 17t-113 63q-105 95 -105 304v613h274v-641q0 -67 35 -105t97 -38h259zM892 1352v-225h-218v225h218zM509 1352v-225h-218v225h218z" />
    <glyph glyph-name="dagger" unicode="&#x2020;" horiz-adv-x="1113" 
d="M693 -317h-274v1101h-351v213h351v368h274v-368h351v-213h-351v-1101z" />
    <glyph glyph-name="degree" unicode="&#xb0;" horiz-adv-x="789" 
d="M395 1373q129 0 222 -90q92 -89 92 -217t-91 -218q-92 -92 -222 -92q-132 0 -224 92q-91 90 -91 221q0 126 91 213q93 89 223 91zM394 1220q-63 0 -108 -44.5t-45 -106.5q0 -64 44 -108.5t108 -44.5q62 0 107 44.5t45 107.5q0 62 -44 106.5t-107 45.5z" />
    <glyph glyph-name="cent" unicode="&#xa2;" horiz-adv-x="1046" 
d="M750 920v-570h217v-213h-217v-201h-155v201q-137 0 -219 23.5t-145 79.5q-163 147 -163 397q0 199 88 326q66 93 164.5 131.5t274.5 38.5v201h155v-201h217v-213h-217zM595 918q-95 -7 -144 -38q-103 -63 -103 -245q0 -128 63 -200t184 -83v566z" />
    <glyph glyph-name="sterling" unicode="&#xa3;" horiz-adv-x="1315" 
d="M1171 1365v-242h-384q-101 0 -143 -7.5t-70 -31.5q-33 -26 -49 -80t-16 -136v-108h452v-171h-452v-347h751v-242h-1151v242h110v347h-110v171h110v27q0 190 25 288.5t89 163.5q74 74 167 100t287 26h384z" />
    <glyph glyph-name="section" unicode="&#xa7;" horiz-adv-x="1278" 
d="M182 764q-51 44 -78.5 111.5t-27.5 147.5q0 131 77 229q63 80 170 101q63 12 219 12h603v-214h-547q-132 0 -174 -26q-64 -40 -64 -110q0 -140 207 -140h223q113 0 167 -14q128 -34 194 -143q51 -85 51 -188q0 -138 -98 -249q98 -92 98 -241q0 -124 -74 -231t-234 -122
q-41 -4 -157 -4h-594v214h537q120 1 159 11q81 22 81 127q0 88 -66 118q-44 20 -148 20h-223q-218 0 -302 68q-106 88 -106 267q0 88 25.5 148.5t81.5 107.5zM705 661h-109q-129 0 -167 -18q-70 -33 -70 -118q0 -73 49 -105.5t157 -32.5h140q89 0 127 9q86 22 86 125
q0 89 -68 119q-45 21 -145 21z" />
    <glyph glyph-name="bullet" unicode="&#x2022;" horiz-adv-x="1365" 
d="M689 978q113 0 196 -83q84 -83 84 -201t-83 -201t-201 -83q-116 0 -199 82q-85 84 -85 202q0 121 84 202q86 82 204 82z" />
    <glyph glyph-name="paragraph" unicode="&#xb6;" horiz-adv-x="1317" 
d="M508 477q-166 3 -252 45q-96 47 -153 164q-52 109 -52 234q0 157 89 280q68 94 158.5 129.5t262.5 35.5h738v-240h-122v-1442h-242v1442h-337q-102 0 -142 -19q-88 -42 -88 -178q0 -108 51.5 -158t163.5 -50h167v-1037h-242v794z" />
    <glyph glyph-name="germandbls" unicode="&#xdf;" horiz-adv-x="1235" 
d="M409 724v-724h-274v965q0 115 31.5 190.5t102.5 128.5q118 89 316 89q176 0 295 -84q106 -76 106 -207q0 -124 -107 -211q109 -14 181 -93q102 -111 102 -304q0 -153 -64 -270q-81 -147 -260 -186q-57 -12 -98 -15t-166 -3h-97v213h141q87 0 129 11.5t72 44.5
q64 69 64 195q0 161 -94 222q-34 23 -78 30.5t-135 7.5h-167zM409 937h206q86 0 118.5 20.5t32.5 75.5q0 126 -152 126q-123 0 -164 -35t-41 -139v-48z" />
    <glyph glyph-name="registered" unicode="&#xae;" horiz-adv-x="1574" 
d="M798 1386q190 0 360 -104q169 -104 260 -280q77 -151 77 -320q0 -197 -104 -366t-281 -259q-151 -77 -322 -77q-198 0 -368 102q-171 104 -263 281q-78 151 -78 319q0 200 105 370q102 167 284 258q150 76 330 76zM796 1252q-239 0 -405 -165q-166 -166 -166 -405
q0 -236 167 -403q165 -165 396 -165q232 0 397 167q164 166 164 402q0 160 -83 298q-80 135 -223 209q-111 58 -247 62zM638 591v-291h-196v778h358q182 0 255 -41q106 -60 106 -179q0 -170 -149 -222q132 -41 140 -213q8 -82 24 -123h-220q-11 31 -20 115
q-12 101 -60 138.5t-166 37.5h-72zM638 742h181q68 0 97 23t29 76q0 48 -29 68.5t-97 20.5h-181v-188z" />
    <glyph glyph-name="copyright" unicode="&#xa9;" horiz-adv-x="1574" 
d="M798 1385q191 0 360 -104q170 -103 261 -279q77 -151 77 -320q0 -198 -104 -366q-104 -169 -281 -259q-152 -77 -322 -77q-198 0 -368 102q-172 103 -264 280q-78 151 -78 319q0 200 105 370q102 167 285 259q150 75 329 75zM796 1251q-239 0 -405 -165
q-166 -166 -166 -404q0 -236 167 -403q165 -165 396 -165q233 0 397 166q165 167 165 403q0 160 -83 297q-81 135 -223 209q-111 59 -248 62zM1111 444v-150h-301q-107 0 -167 15t-109 54q-125 99 -125 318q0 157 68 255q50 72 131 104t210 32h293v-150h-272
q-118 0 -168 -51.5t-50 -173.5q0 -140 50 -196.5t174 -56.5h266z" />
    <glyph glyph-name="trademark" unicode="&#x2122;" horiz-adv-x="1839" 
d="M267 1218h-261v147h720v-147h-271v-617h-188v617zM1080 1365l199 -572l210 572h266v-764h-180v533l-203 -533h-189l-190 531v-531h-180v764h267z" />
    <glyph glyph-name="acute" unicode="&#xb4;" horiz-adv-x="1024" 
d="M826 1382l-254 -267h-176l188 267h242z" />
    <glyph glyph-name="dieresis" unicode="&#xa8;" horiz-adv-x="1024" 
d="M813 1352v-225h-218v225h218zM430 1352v-225h-218v225h218z" />
    <glyph glyph-name="notequal" unicode="&#x2260;" horiz-adv-x="1146" 
d="M572 998l103 247l213 -89l-66 -158h248v-211h-335l-75 -180h410v-211h-497l-102 -247l-213 88l65 159h-248v211h335l75 180h-410v211h497z" />
    <glyph glyph-name="AE" unicode="&#xc6;" horiz-adv-x="2111" 
d="M1132 0l-132 316h-520l-131 -316h-341l565 1365h335l115 -280q29 64 80 124t99 89q61 36 137 51.5t191 15.5h491v-243h-379q-149 0 -216.5 -20.5t-112.5 -79.5q-30 -40 -41 -81t-19 -140h768v-243h-768q15 -177 103 -246t299 -69h366v-243h-889zM740 1037l-194 -478h389z
" />
    <glyph glyph-name="Oslash" unicode="&#xd8;" horiz-adv-x="1480" 
d="M373 71l-64 -79h-243l154 192q-154 184 -154 491q0 390 194 557q79 67 205 105t274 38q209 0 372 -76l60 75h243l-150 -188q150 -179 150 -517q0 -214 -72 -367q-86 -185 -268 -256q-136 -54 -312 -54q-214 0 -389 79zM546 268q83 -47 200 -47q179 0 263.5 113.5
t84.5 353.5q0 146 -37 256zM424 422l513 675q-81 47 -199 47q-197 0 -284 -131q-68 -101 -68 -326q0 -158 38 -265z" />
    <glyph glyph-name="infinity" unicode="&#x221e;" horiz-adv-x="1365" 
d="M688 560q-145 -188 -329 -188q-157 0 -250 109q-73 86 -73 217q0 151 102 240q93 82 221 82q89 0 171 -48t148 -139q138 187 329 187q166 0 258 -118q65 -84 65 -206q0 -153 -102 -244q-91 -80 -218 -80q-188 0 -322 188zM786 696q92 -137 192 -137q59 0 98.5 39.5
t39.5 98.5t-39.5 98t-99.5 39q-78 0 -147 -79q-9 -10 -27 -34t-17 -25zM580 696q-94 137 -193 137q-59 0 -98 -39.5t-39 -98.5q0 -58 39.5 -97.5t98.5 -39.5q78 0 147 78q9 11 27.5 35t17.5 25z" />
    <glyph glyph-name="plusminus" unicode="&#xb1;" horiz-adv-x="1146" 
d="M75 942h382v365h231v-365h382v-224h-382v-364h-231v364h-382v224zM75 282h995v-224h-995v224z" />
    <glyph glyph-name="lessequal" unicode="&#x2264;" horiz-adv-x="1024" 
d="M955 1325v-295l-542 -172l542 -171v-295l-887 334v265zM955 337v-277h-887v277h887z" />
    <glyph glyph-name="greaterequal" unicode="&#x2265;" horiz-adv-x="1024" 
d="M69 392v295l541 171l-542 172v295l887 -334v-265zM68 60v277h887v-277h-887z" />
    <glyph glyph-name="yen" unicode="&#xa5;" horiz-adv-x="1288" 
d="M446 661l-439 704h340l286 -533l303 533h345l-458 -704h274v-164h-322v-109h281v-164h-281v-224h-290v224h-281v164h281v109h-322v164h283z" />
    <glyph glyph-name="mu" unicode="&#xb5;" horiz-adv-x="1209" 
d="M409 5v-380h-274v1372h274v-647q0 -63 35.5 -100t96.5 -37h259v784h274v-997h-540q-89 0 -125 5z" />
    <glyph glyph-name="partialdiff" unicode="&#x2202;" horiz-adv-x="1024" 
d="M121 1128l34 232q198 -22 345 -77q184 -70 310 -221q176 -209 176 -527q0 -217 -90 -351q-134 -202 -391 -202q-145 0 -258 70q-80 50 -133 131q-78 119 -78 266q0 183 116 308q118 128 296 128q80 0 134.5 -20t115.5 -72q-50 87 -65 109t-42 48q-48 47 -96 73.5
t-143 59.5q-93 32 -231 45zM515 664q-79 0 -140 -52q-74 -64 -74 -172q0 -95 65 -160q61 -61 142 -61q76 0 137 54q70 64 70 170t-67 167q-57 52 -133 54z" />
    <glyph glyph-name="summation" unicode="&#x2211;" horiz-adv-x="1365" 
d="M1274 1536v-524h-270l-33 248h-566l495 -716l-492 -781h582l18 258h284v-533h-1223v317l476 738l-476 676v317h1205z" />
    <glyph glyph-name="product" unicode="&#x220f;" horiz-adv-x="1365" 
d="M38 1536h1289v-240h-147v-1568h147v-240h-547v240h131v1568h-458v-1568h131v-240h-546v240h149v1568h-149v240z" />
    <glyph glyph-name="pi" unicode="&#x3c0;" horiz-adv-x="1277" 
d="M190 0v760h-149v222h1195v-222h-149v-760h-280v760h-337v-760h-280z" />
    <glyph glyph-name="integral" unicode="&#x222b;" horiz-adv-x="1024" 
d="M91 -491l51 283q49 -20 87 -20q86 0 112 71q10 25 10 221v841q1 226 3.5 273.5t18.5 104.5q32 121 145 193q93 60 237 60q72 0 178 -21l-50 -283q-50 20 -90 20q-83 0 -110 -70q-10 -28 -10 -124v-931q0 -269 -10 -327q-52 -308 -411 -308q-100 0 -161 17z" />
    <glyph glyph-name="ordfeminine" unicode="&#xaa;" horiz-adv-x="809" 
d="M531 917q0 53 -26 72.5t-98 19.5h-298v139h298q116 0 165 -13t87 -54q61 -69 59 -197v-338h-371q-97 0 -134 5t-66 23q-84 49 -84 153q0 62 31.5 110t84.5 65q44 15 148 15h204zM531 778h-192q-42 0 -54 -3q-33 -8 -33 -44q0 -26 19 -36t68 -10h192v93z" />
    <glyph glyph-name="ordmasculine" unicode="&#xba;" horiz-adv-x="792" 
d="M395 1157q177 0 262 -96q78 -89 78 -221q0 -142 -98 -226q-90 -76 -244 -76q-161 0 -252 86q-84 79 -84 227q0 139 91.5 221.5t246.5 84.5zM397 1020q-150 0 -150 -174q0 -170 150 -170q148 0 148 173q0 169 -148 171z" />
    <glyph glyph-name="Omega" unicode="&#x2126;" horiz-adv-x="1365" 
d="M57 0v260h282q-117 73 -182 156q-107 139 -107 340q0 278 200 471q180 172 433 172q254 0 433 -172q200 -193 200 -472q0 -164 -69 -282.5t-220 -212.5h282v-260h-552v240q103 53 163 144q91 139 91 316q0 191 -101 317q-95 118 -227 118t-228 -119q-101 -126 -101 -313
q0 -332 255 -463v-240h-552z" />
    <glyph glyph-name="ae" unicode="&#xe6;" horiz-adv-x="1768" 
d="M978 917q114 83 315 80h385v-213h-366q-112 0 -157.5 -38t-55.5 -140h579v-213h-579q9 -98 64.5 -139t178.5 -41h336v-213h-1159q-154 0 -213.5 9t-104.5 39q-122 82 -122 247q0 101 48.5 179.5t127.5 106.5q70 25 232 25h336q0 105 -42.5 141.5t-165.5 36.5h-464v213
h491q155 0 218.5 -15t117.5 -65zM823 393h-317l-45 1q-47 0 -75 -25t-28 -67q0 -49 33.5 -69t114.5 -20h317v180z" />
    <glyph glyph-name="oslash" unicode="&#xf8;" horiz-adv-x="1192" 
d="M886 948l56 64h209l-144 -165q117 -151 117 -361q0 -234 -152 -373q-139 -128 -380 -128q-156 0 -286 64l-56 -64h-209l141 161q-114 134 -114 358q0 210 125 350q142 158 401 158q164 0 292 -64zM721 775q-53 27 -128 27q-244 0 -244 -307q0 -86 20 -150zM821 653
l-350 -429q54 -29 127 -29q245 0 245 305q0 90 -22 153z" />
    <glyph glyph-name="questiondown" unicode="&#xbf;" horiz-adv-x="1395" 
d="M1273 0h-712q-158 0 -223 13.5t-127 58.5q-73 53 -108 135t-35 200q0 141 64 242q53 82 140.5 116.5t244.5 34.5h180q148 0 197 32.5t49 130.5v69h290v-97q-1 -211 -110 -301q-50 -41 -128.5 -58.5t-208.5 -17.5h-167q-130 0 -175 -28q-57 -36 -57 -134q0 -111 85 -140
q40 -14 189 -14h612v-242zM943 1133v232h290v-232h-290z" />
    <glyph glyph-name="exclamdown" unicode="&#xa1;" horiz-adv-x="560" 
d="M425 0h-290v1031h290v-1031zM425 1133h-290v232h290v-232z" />
    <glyph glyph-name="logicalnot" unicode="&#xac;" horiz-adv-x="1024" 
d="M647 0v319h-579v277h887v-596h-308z" />
    <glyph glyph-name="radical" unicode="&#x221a;" horiz-adv-x="1365" 
d="M1365 1693v-242h-342l-371 -1451h-348l-122 522h-182v248h352l56 -217q17 -65 43 -291h17q22 157 51.5 302t81.5 346l201 783h563z" />
    <glyph glyph-name="florin" unicode="&#x192;" horiz-adv-x="1037" 
d="M368 647h-180l33 213h181l31 196q13 82 34 133.5t58 88.5q84 86 246 87h241l-34 -213h-138q-120 5 -135 -110l-29 -182h256l-34 -213h-256l-97 -612q-27 -173 -105.5 -247.5t-234.5 -74.5h-241l34 213h138q75 0 100.5 26t40.5 119z" />
    <glyph glyph-name="approxequal" unicode="&#x2248;" horiz-adv-x="1024" 
d="M171 713l-154 108q112 282 307 282q68 0 230 -69q82 -34 106 -42t49 -8q44 0 73 21t72 84l154 -108q-53 -128 -110 -190q-83 -89 -211 -89q-44 0 -81.5 11.5t-146.5 59.5q-101 44 -150 44q-38 0 -68.5 -23t-69.5 -81zM171 264l-154 108q113 282 307 282q68 0 230 -69
q83 -35 106.5 -42.5t48.5 -7.5q44 0 73 21t72 84l154 -108q-53 -129 -110 -190q-83 -89 -211 -89q-43 0 -82 12t-146 59q-101 44 -150 44q-38 0 -68 -22.5t-70 -81.5z" />
    <glyph glyph-name="Delta" unicode="&#x2206;" horiz-adv-x="1330" 
d="M17 0l491 1365h311l494 -1365h-1296zM399 260h525l-259 789z" />
    <glyph glyph-name="guillemotleft" unicode="&#xab;" horiz-adv-x="821" 
d="M357 835v-243l-143 -101l143 -96v-243l-272 215v247zM719 835v-243l-144 -101l144 -96v-243l-273 215v247z" />
    <glyph glyph-name="guillemotright" unicode="&#xbb;" horiz-adv-x="821" 
d="M102 835l272 -221v-247l-272 -215v243l143 96l-143 101v243zM463 835l273 -221v-247l-273 -215v243l144 96l-144 101v243z" />
    <glyph glyph-name="ellipsis" unicode="&#x2026;" horiz-adv-x="1376" 
d="M353 266v-266h-248v266h248zM812 266v-266h-248v266h248zM1271 266v-266h-248v266h248z" />
    <glyph glyph-name="glyph172" horiz-adv-x="1484" 
 />
    <glyph glyph-name="Agrave" unicode="&#xc0;" horiz-adv-x="1480" 
d="M8 0l565 1365h335l565 -1365h-341l-132 316h-519l-132 -316h-341zM741 1037l-195 -478h389zM413 1720h249l188 -252h-180z" />
    <glyph glyph-name="Atilde" unicode="&#xc3;" horiz-adv-x="1480" 
d="M8 0l565 1365h335l565 -1365h-341l-132 316h-519l-132 -316h-341zM741 1037l-195 -478h389zM1079 1696q-26 -222 -191 -222q-69 0 -232 63q-26 10 -50 10q-63 0 -76 -69h-127q31 222 194 222q52 0 170 -42q82 -30 111 -30q59 0 74 68h127z" />
    <glyph glyph-name="Otilde" unicode="&#xd5;" horiz-adv-x="1480" 
d="M740 1374q205 0 360 -70q183 -83 256 -279q58 -154 58 -362t-71 -361q-87 -184 -269 -256q-136 -54 -313 -54q-230 0 -401 86q-143 72 -218.5 225.5t-75.5 372.5q0 390 194 556q164 140 480 142zM742 1144q-201 0 -288 -131q-68 -102 -68 -328q0 -240 86 -353
q85 -111 271 -111q180 0 265.5 112.5t85.5 348.5q0 214 -69 327q-81 134 -283 135zM1092 1696q-26 -222 -191 -222q-69 0 -232 63q-26 10 -50 10q-63 0 -76 -69h-127q31 222 194 222q52 0 170 -42q82 -30 111 -30q59 0 74 68h127z" />
    <glyph glyph-name="OE" unicode="&#x152;" horiz-adv-x="2278" 
d="M1257 171q-158 -179 -496 -179q-230 0 -401 86q-143 72 -218.5 225.5t-75.5 372.5q0 389 194 556q166 142 481 142q166 0 302.5 -47.5t214.5 -132.5q83 94 182 132.5t257 38.5h491v-243h-379q-149 0 -216.5 -20.5t-112.5 -79.5q-30 -40 -41 -81t-19 -140h768v-243h-768
q15 -177 103 -246t299 -69h366v-243h-379q-230 0 -345.5 36t-206.5 135zM742 1144q-201 0 -288 -131q-68 -102 -68 -328q0 -240 86 -353q85 -111 271 -111q180 0 265.5 112.5t85.5 348.5q0 214 -69 327q-81 134 -283 135z" />
    <glyph glyph-name="oe" unicode="&#x153;" horiz-adv-x="1837" 
d="M996 137q-143 -152 -405 -152q-251 0 -393 143q-130 130 -130 373q0 213 125 353q142 158 399 158q269 0 399 -147q113 135 370 132h385v-213h-365q-112 0 -157.5 -38t-55.5 -140h578v-213h-578q8 -98 63.5 -139t179.5 -41h335v-213h-365q-141 0 -222.5 29t-162.5 108z
M597 802q-248 0 -248 -310q0 -297 247 -297q246 0 246 301q0 303 -245 306z" />
    <glyph glyph-name="endash" unicode="&#x2013;" horiz-adv-x="1475" 
d="M1201 652v-205h-928v205h928z" />
    <glyph glyph-name="emdash" unicode="&#x2014;" horiz-adv-x="1427" 
d="M1427 652v-205h-1427v205h1427z" />
    <glyph glyph-name="quotedblleft" unicode="&#x201c;" horiz-adv-x="877" 
d="M105 820v237l158 308h125l-125 -279h90v-266h-248zM503 820v237l158 308h125l-125 -279h90v-266h-248z" />
    <glyph glyph-name="quotedblright" unicode="&#x201d;" horiz-adv-x="877" 
d="M373 1365v-237l-158 -308h-125l125 279h-90v266h248zM771 1365v-237l-158 -308h-125l125 279h-90v266h248z" />
    <glyph glyph-name="quoteleft" unicode="&#x2018;" horiz-adv-x="479" 
d="M105 820v237l158 308h125l-125 -279h90v-266h-248z" />
    <glyph glyph-name="quoteright" unicode="&#x2019;" horiz-adv-x="479" 
d="M373 1365v-237l-158 -308h-125l125 279h-90v266h248z" />
    <glyph glyph-name="divide" unicode="&#xf7;" horiz-adv-x="1146" 
d="M574 1195q59 0 101 -42q45 -43 45 -106q0 -61 -43.5 -104.5t-104.5 -43.5t-104.5 43.5t-43.5 103.5q0 63 43.5 106t106.5 43zM574 494q59 0 101 -41q45 -44 45 -108q0 -60 -43.5 -103.5t-104.5 -43.5t-104.5 43.5t-43.5 103.5q0 65 45 107q43 42 105 42zM75 809h995v-224
h-995v224z" />
    <glyph glyph-name="lozenge" unicode="&#x25ca;" horiz-adv-x="1365" 
d="M683 1419l531 -736l-531 -736l-532 736zM683 1238l-404 -555l404 -554l403 554z" />
    <glyph glyph-name="ydieresis" unicode="&#xff;" horiz-adv-x="1175" 
d="M789 213v784h274v-977q0 -195 -102.5 -285t-325.5 -90h-490v213h490q88 1 115 20q20 11 26.5 31t12.5 91h-245q-422 -10 -399 440v557h274v-530q0 -155 28 -204.5t116 -49.5h226zM882 1352v-225h-218v225h218zM499 1352v-225h-218v225h218z" />
    <glyph glyph-name="Ydieresis" unicode="&#x178;" horiz-adv-x="1339" 
d="M510 599l-505 766h340l313 -533l330 533h345l-533 -778v-587h-290v599zM980 1700v-225h-221v225h221zM580 1700v-225h-221v225h221z" />
    <glyph glyph-name="fraction" unicode="&#x2215;" horiz-adv-x="327" 
d="M442 1374h196l-766 -1382h-196z" />
    <glyph glyph-name="currency" unicode="&#xa4;" horiz-adv-x="1328" 
d="M949 1149l164 162l162 -163l-160 -159q77 -132 77 -293q0 -153 -72 -283l162 -162l-161 -163l-162 161q-129 -66 -295 -66q-164 0 -293 66l-162 -161l-162 162l162 163q-72 129 -72 284q0 158 75 288l-165 164l163 163l166 -165q127 63 288 63t285 -61zM668 1000
q-250 0 -250 -303q0 -304 247 -304q246 0 246 303q0 299 -243 304z" />
    <glyph glyph-name="guilsinglleft" unicode="&#x2039;" horiz-adv-x="460" 
d="M357 835v-243l-143 -101l143 -96v-243l-272 215v247z" />
    <glyph glyph-name="guilsinglright" unicode="&#x203a;" horiz-adv-x="460" 
d="M102 835l272 -221v-247l-272 -215v243l143 96l-143 101v243z" />
    <glyph glyph-name="fi" unicode="&#xf001;" horiz-adv-x="1255" 
d="M1121 997v-997h-274v784h-355v-784h-274v784h-180v213h180v60q0 162 68.5 235t220.5 73h200v-213h-98q-120 5 -117 -110v-45h629zM847 1099v266h274v-266h-274z" />
    <glyph glyph-name="fl" unicode="&#xf002;" horiz-adv-x="1255" 
d="M492 997h216v-213h-216v-784h-274v784h-180v213h180v60q0 162 68.5 235t220.5 73h200v-213h-98q-120 5 -117 -110v-45zM1121 0h-274v1365h274v-1365z" />
    <glyph glyph-name="daggerdbl" unicode="&#x2021;" horiz-adv-x="1113" 
d="M693 528h351v-213h-351v-632h-274v632h-351v213h351v256h-351v213h351v368h274v-368h351v-213h-351v-256z" />
    <glyph glyph-name="periodcentered" unicode="&#x2219;" horiz-adv-x="459" 
d="M353 816v-266h-248v266h248z" />
    <glyph glyph-name="quotesinglbase" unicode="&#x201a;" horiz-adv-x="479" 
d="M373 266v-237l-158 -309h-125l125 280h-90v266h248z" />
    <glyph glyph-name="quotedblbase" unicode="&#x201e;" horiz-adv-x="877" 
d="M373 266v-237l-158 -309h-125l125 280h-90v266h248zM771 266v-237l-158 -309h-125l125 280h-90v266h248z" />
    <glyph glyph-name="perthousand" unicode="&#x2030;" horiz-adv-x="2617" 
d="M442 1371q186 0 276.5 -85t90.5 -260q0 -345 -348 -345q-380 0 -380 347q0 174 88 258t273 85zM440 1223q-77 0 -117.5 -49t-40.5 -141q0 -107 40 -155.5t130 -48.5q81 0 118.5 49t37.5 153q0 190 -168 192zM1089 1365h174l-552 -1365h-174zM1360 683q186 0 276.5 -85.5
t90.5 -260.5q0 -345 -348 -345q-380 0 -380 348q0 174 88 258t273 85zM1358 535q-158 0 -158 -191q0 -107 40.5 -155.5t129.5 -48.5q81 0 118.5 49t37.5 153q0 191 -168 193zM2169 683q186 0 276.5 -85.5t90.5 -260.5q0 -345 -348 -345q-380 0 -380 348q0 174 88 258t273 85
zM2167 535q-158 0 -158 -191q0 -107 40.5 -155.5t129.5 -48.5q81 0 118.5 49t37.5 153q0 191 -168 193z" />
    <glyph glyph-name="Acircumflex" unicode="&#xc2;" horiz-adv-x="1480" 
d="M8 0l565 1365h335l565 -1365h-341l-132 316h-519l-132 -316h-341zM741 1037l-195 -478h389zM741 1614l-128 -146h-207l222 252h225l222 -252h-207z" />
    <glyph glyph-name="Ecircumflex" unicode="&#xca;" horiz-adv-x="1254" 
d="M1164 1365v-243h-379q-149 0 -216.5 -20.5t-112.5 -79.5q-30 -40 -41 -81t-19 -140h768v-243h-768q15 -177 103 -246t299 -69h366v-243h-379q-154 0 -271 19q-184 30 -293 161q-155 188 -155 510q0 357 219 555q75 67 160 93.5t228 26.5h491zM752 1614l-128 -146h-207
l222 252h225l222 -252h-207z" />
    <glyph glyph-name="Aacute" unicode="&#xc1;" horiz-adv-x="1480" 
d="M8 0l565 1365h335l565 -1365h-341l-132 316h-519l-132 -316h-341zM741 1037l-195 -478h389zM1072 1720l-257 -252h-180l188 252h249z" />
    <glyph glyph-name="Edieresis" unicode="&#xcb;" horiz-adv-x="1254" 
d="M1164 1365v-243h-379q-149 0 -216.5 -20.5t-112.5 -79.5q-30 -40 -41 -81t-19 -140h768v-243h-768q15 -177 103 -246t299 -69h366v-243h-379q-154 0 -271 19q-184 30 -293 161q-155 188 -155 510q0 357 219 555q75 67 160 93.5t228 26.5h491zM1065 1700v-225h-221v225
h221zM665 1700v-225h-221v225h221z" />
    <glyph glyph-name="Egrave" unicode="&#xc8;" horiz-adv-x="1254" 
d="M1164 1365v-243h-379q-149 0 -216.5 -20.5t-112.5 -79.5q-30 -40 -41 -81t-19 -140h768v-243h-768q15 -177 103 -246t299 -69h366v-243h-379q-154 0 -271 19q-184 30 -293 161q-155 188 -155 510q0 357 219 555q75 67 160 93.5t228 26.5h491zM472 1720h249l188 -252h-180
z" />
    <glyph glyph-name="Iacute" unicode="&#xcd;" horiz-adv-x="569" 
d="M140 0v1365h290v-1365h-290zM574 1720l-216 -252h-177l158 252h235z" />
    <glyph glyph-name="Icircumflex" unicode="&#xce;" horiz-adv-x="569" 
d="M140 0v1365h290v-1365h-290zM285 1614l-90 -146h-190l167 252h226l167 -252h-190z" />
    <glyph glyph-name="Idieresis" unicode="&#xcf;" horiz-adv-x="570" 
d="M139 0v1365h290v-1365h-290zM533 1700v-225h-208v225h208zM244 1700v-225h-208v225h208z" />
    <glyph glyph-name="Igrave" unicode="&#xcc;" horiz-adv-x="569" 
d="M140 0v1365h290v-1365h-290zM-4 1720h235l158 -252h-177z" />
    <glyph glyph-name="Oacute" unicode="&#xd3;" horiz-adv-x="1480" 
d="M740 1374q205 0 360 -70q183 -83 256 -279q58 -154 58 -362t-71 -361q-87 -184 -269 -256q-136 -54 -313 -54q-230 0 -401 86q-143 72 -218.5 225.5t-75.5 372.5q0 390 194 556q164 140 480 142zM742 1144q-201 0 -288 -131q-68 -102 -68 -328q0 -240 86 -353
q85 -111 271 -111q180 0 265.5 112.5t85.5 348.5q0 214 -69 327q-81 134 -283 135zM1047 1720l-257 -252h-180l188 252h249z" />
    <glyph glyph-name="Ocircumflex" unicode="&#xd4;" horiz-adv-x="1480" 
d="M740 1374q205 0 360 -70q183 -83 256 -279q58 -154 58 -362t-71 -361q-87 -184 -269 -256q-136 -54 -313 -54q-230 0 -401 86q-143 72 -218.5 225.5t-75.5 372.5q0 390 194 556q164 140 480 142zM742 1144q-201 0 -288 -131q-68 -102 -68 -328q0 -240 86 -353
q85 -111 271 -111q180 0 265.5 112.5t85.5 348.5q0 214 -69 327q-81 134 -283 135zM740 1614l-128 -146h-207l222 252h225l222 -252h-207z" />
    <glyph glyph-name="apple" unicode="&#xf000;" horiz-adv-x="1365" 
d="M984 1416v-21q0 -161 -127 -265q-48 -39 -86 -54t-91 -15q3 146 84.5 241.5t219.5 113.5zM1277 936q-65 -50 -98 -92q-67 -85 -67 -193q0 -103 54 -184t149 -122q-65 -161 -139 -256q-110 -143 -208 -143q-30 0 -50.5 6.5t-114.5 45.5q-16 7 -78 7q-52 0 -75 -5.5
t-107 -39.5q-42 -17 -79 -17q-55 0 -114 43.5t-112 123.5q-73 108 -118 231q-54 149 -54 288q0 183 100 314q103 134 283 134q66 0 158 -35q68 -26 97 -26q35 0 89 20q80 30 111.5 37.5t76.5 7.5q189 0 296 -145z" />
    <glyph glyph-name="Ograve" unicode="&#xd2;" horiz-adv-x="1480" 
d="M740 1374q205 0 360 -70q183 -83 256 -279q58 -154 58 -362t-71 -361q-87 -184 -269 -256q-136 -54 -313 -54q-230 0 -401 86q-143 72 -218.5 225.5t-75.5 372.5q0 390 194 556q164 140 480 142zM742 1144q-201 0 -288 -131q-68 -102 -68 -328q0 -240 86 -353
q85 -111 271 -111q180 0 265.5 112.5t85.5 348.5q0 214 -69 327q-81 134 -283 135zM453 1720h249l188 -252h-180z" />
    <glyph glyph-name="Uacute" unicode="&#xda;" horiz-adv-x="1440" 
d="M414 1365v-818q0 -98 16 -152.5t55 -92.5q87 -84 240 -84q98 0 171 33t101 90q29 58 29 206v818h290v-804q0 -159 -33 -263t-104 -167q-161 -142 -459 -142q-316 0 -462 139q-76 73 -105 162t-29 250v825h290zM1027 1720l-257 -252h-180l188 252h249z" />
    <glyph glyph-name="Ucircumflex" unicode="&#xdb;" horiz-adv-x="1440" 
d="M414 1365v-818q0 -98 16 -152.5t55 -92.5q87 -84 240 -84q98 0 171 33t101 90q29 58 29 206v818h290v-804q0 -159 -33 -263t-104 -167q-161 -142 -459 -142q-316 0 -462 139q-76 73 -105 162t-29 250v825h290zM720 1614l-128 -146h-207l222 252h225l222 -252h-207z" />
    <glyph glyph-name="Ugrave" unicode="&#xd9;" horiz-adv-x="1440" 
d="M414 1365v-818q0 -98 16 -152.5t55 -92.5q87 -84 240 -84q98 0 171 33t101 90q29 58 29 206v818h290v-804q0 -159 -33 -263t-104 -167q-161 -142 -459 -142q-316 0 -462 139q-76 73 -105 162t-29 250v825h290zM420 1720h249l188 -252h-180z" />
    <glyph glyph-name="dotlessi" unicode="&#x131;" horiz-adv-x="545" 
d="M135 997h274v-997h-274v997z" />
    <glyph glyph-name="circumflex" unicode="&#x2c6;" horiz-adv-x="1024" 
d="M512 1278l-130 -163h-198l218 267h220l217 -267h-197z" />
    <glyph glyph-name="tilde" unicode="&#x2dc;" horiz-adv-x="1024" 
d="M843 1348q-25 -222 -190 -222q-64 0 -163 40q-80 33 -109 33q-63 0 -76 -69h-124q31 222 193 222q54 0 161 -43q74 -30 110 -30q60 0 74 69h124z" />
    <glyph glyph-name="macron" unicode="&#x2c9;" horiz-adv-x="1024" 
d="M837 1297v-137h-649v137h649z" />
    <glyph glyph-name="breve" unicode="&#x2d8;" horiz-adv-x="1024" 
d="M212 1382h152q25 -117 149 -117q122 0 148 117h152q-8 -91 -49 -152q-81 -118 -250 -118q-135 0 -214 71t-88 199z" />
    <glyph glyph-name="dotaccent" unicode="&#x2d9;" horiz-adv-x="1024" 
d="M621 1352v-225h-218v225h218z" />
    <glyph glyph-name="ring" unicode="&#x2da;" horiz-adv-x="1024" 
d="M515 1484q84 0 143 -65q50 -56 50 -131q0 -87 -65 -145q-56 -51 -131 -51q-87 0 -146 65q-50 56 -50 133q0 84 65 143q55 51 134 51zM513 1367q-34 0 -57 -22.5t-23 -55.5q0 -34 23 -57t56 -23t56 23t23 56t-22.5 55.5t-55.5 23.5z" />
    <glyph glyph-name="cedilla" unicode="&#xb8;" horiz-adv-x="1024" 
d="M412 0h105v-92h20q89 0 126 -25q57 -38 57 -125q0 -100 -77 -129q-39 -15 -119 -15h-159v100h141q33 0 47.5 13t14.5 42q0 34 -14 45t-55 11h-87v175z" />
    <glyph glyph-name="hungarumlaut" unicode="&#x2dd;" horiz-adv-x="1024" 
d="M618 1382l-232 -267h-149l169 267h212zM906 1382l-233 -267h-148l169 267h212z" />
    <glyph glyph-name="ogonek" unicode="&#x2db;" horiz-adv-x="1024" 
d="M983 0q-121 -65 -121 -151q0 -76 85 -76q43 0 92 22v-116q-73 -26 -138 -26q-194 0 -194 154q0 117 125 193h151z" />
    <glyph glyph-name="caron" unicode="&#x2c7;" horiz-adv-x="1024" 
d="M512 1219l130 163h197l-217 -267h-220l-218 267h198z" />
    <glyph glyph-name="glyph226" 
 />
    <glyph glyph-name="glyph227" 
 />
    <glyph glyph-name="glyph228" 
 />
    <glyph glyph-name="glyph229" 
 />
    <glyph glyph-name="glyph230" 
 />
    <glyph glyph-name="glyph231" 
 />
    <glyph glyph-name="glyph232" 
 />
    <glyph glyph-name="glyph233" 
 />
    <glyph glyph-name="glyph234" 
 />
    <glyph glyph-name="glyph235" 
 />
    <glyph glyph-name="glyph236" 
 />
    <glyph glyph-name="glyph237" 
 />
    <glyph glyph-name="glyph238" 
 />
    <glyph glyph-name="glyph239" 
 />
    <glyph glyph-name="glyph240" 
 />
    <glyph glyph-name="glyph241" 
 />
    <glyph glyph-name="glyph242" 
 />
    <glyph glyph-name="glyph243" 
 />
    <glyph glyph-name="glyph244" 
 />
    <glyph glyph-name="glyph245" 
 />
    <glyph glyph-name="glyph246" 
 />
    <glyph glyph-name="glyph247" 
 />
    <glyph glyph-name="glyph248" 
 />
    <glyph glyph-name="glyph249" 
 />
    <glyph glyph-name="glyph250" 
 />
    <glyph glyph-name="glyph251" 
 />
    <glyph glyph-name="glyph252" 
 />
    <glyph glyph-name="glyph253" 
 />
    <glyph glyph-name="glyph254" 
 />
    <glyph glyph-name="glyph255" 
 />
    <glyph glyph-name="glyph256" 
 />
    <glyph glyph-name="glyph257" 
 />
    <glyph glyph-name="nbspace" unicode="&#xa0;" 
 />
    <glyph glyph-name="brokenbar" unicode="&#xa6;" horiz-adv-x="1024" 
d="M353 1365h318v-722h-318v722zM353 314h318v-655h-318v655z" />
    <glyph glyph-name="sfthyphen" unicode="&#xad;" horiz-adv-x="478" 
d="M478 652v-246h-478v246h478z" />
    <glyph glyph-name="overscore" unicode="&#xaf;" horiz-adv-x="1024" 
d="M0 1668h1024v-224h-1024v224z" />
    <glyph glyph-name="twosuperior" unicode="&#xb2;" horiz-adv-x="970" 
d="M300 703h562v-157h-758v221q-1 136 75 211q33 32 77.5 43.5t131.5 11.5h140q73 0 107 20.5t34 64.5q0 90 -141 90h-410v157h449q167 0 235 -53q82 -65 82 -189q0 -72 -27 -127.5t-74 -82.5q-67 -37 -203 -37h-122q-96 0 -127 -21.5t-31 -87.5v-64z" />
    <glyph glyph-name="threesuperior" unicode="&#xb3;" horiz-adv-x="970" 
d="M125 546v157h375q71 0 100.5 20t29.5 68q0 54 -38 77q-23 14 -92 14h-294v157h294q75 0 102.5 17.5t27.5 65.5t-36 71q-23 15 -94 15h-375v157h407q137 0 189 -23q57 -27 90.5 -81t33.5 -122q0 -117 -108 -178q108 -69 108 -194q0 -121 -96 -177q-44 -26 -92.5 -35
t-146.5 -9h-385z" />
    <glyph glyph-name="middot" unicode="&#xb7;" horiz-adv-x="459" 
d="M353 816v-266h-248v266h248z" />
    <glyph glyph-name="onesuperior" unicode="&#xb9;" horiz-adv-x="970" 
d="M583 546h-196v819h196v-819z" />
    <glyph glyph-name="onequarter" unicode="&#xbc;" horiz-adv-x="2266" 
d="M665 546h-196v819h196v-819zM1412 1374h196l-766 -1382h-196zM1277 140v181l490 498h250v-522h113v-157h-113v-140h-196v140h-544zM1505 297h316v321z" />
    <glyph glyph-name="onehalf" unicode="&#xbd;" horiz-adv-x="2266" 
d="M665 546h-196v819h196v-819zM1412 1374h196l-766 -1382h-196zM1624 157h562v-157h-758v221q-2 136 75 211q33 32 77.5 43.5t131.5 11.5h140q73 0 107 20.5t34 64.5q0 90 -141 90h-410v157h449q167 0 235 -53q82 -65 82 -189q0 -72 -27 -127.5t-74 -82.5q-67 -37 -203 -37
h-122q-95 0 -126.5 -21.5t-31.5 -87.5v-64z" />
    <glyph glyph-name="threequarters" unicode="&#xbe;" horiz-adv-x="2266" 
d="M125 546v157h375q71 0 100.5 20t29.5 68q0 54 -38 77q-23 14 -92 14h-294v157h294q75 0 102.5 17.5t27.5 65.5t-36 71q-22 15 -94 15h-375v157h407q138 0 189 -24q58 -26 91 -80t33 -122q0 -117 -108 -178q108 -71 108 -194q0 -121 -96 -177q-44 -26 -92.5 -35t-146.5 -9
h-385zM1412 1374h195l-766 -1382h-195zM1263 140v181l490 498h250v-522h114v-157h-114v-140h-196v140h-544zM1491 297h316v321z" />
    <glyph glyph-name="Eth" unicode="&#xd0;" horiz-adv-x="1468" 
d="M140 576h-132v225h132v564h579q218 0 336 -43q219 -79 292 -292q56 -163 56 -350q0 -185 -53 -349q-53 -168 -177 -247q-77 -50 -170 -67t-284 -17h-579v576zM430 576v-333h289q191 0 264 85q46 52 73 148.5t27 205.5q0 121 -32.5 221.5t-86.5 149.5q-77 69 -245 69h-289
v-321h305v-225h-305z" />
    <glyph glyph-name="multiply" unicode="&#xd7;" horiz-adv-x="1146" 
d="M103 385l311 312l-311 311l158 158l312 -311l311 311l158 -158l-311 -311l311 -312l-158 -158l-311 311l-312 -311z" />
    <glyph glyph-name="Yacute" unicode="&#xdd;" horiz-adv-x="1339" 
d="M510 599l-505 766h340l313 -533l330 533h345l-533 -778v-587h-290v599zM983 1720l-257 -252h-180l188 252h249z" />
    <glyph glyph-name="Thorn" unicode="&#xde;" horiz-adv-x="1404" 
d="M140 0v1365h290v-218h399q183 0 263 -27q132 -44 209 -186q57 -105 57 -230q0 -105 -38 -198t-106 -153q-60 -53 -128.5 -73.5t-188.5 -20.5h-467v-259h-290zM430 502h399q102 0 146 34q64 51 64 176q0 139 -99 178q-35 14 -111 14h-399v-402z" />
    <glyph glyph-name="eth" unicode="&#xf0;" horiz-adv-x="1196" 
d="M477 1128l-186 -125l-74 115l114 77q-39 17 -131 45l102 162q110 -17 244 -62l194 131l77 -115l-125 -85q161 -100 249 -205q89 -108 137.5 -245.5t48.5 -284.5q0 -259 -153 -421q-123 -130 -379 -130q-255 0 -397 143q-130 130 -130 373q0 258 174 400q135 110 329 110
q67 0 111 -18q-59 72 -205 135zM597 802q-248 0 -248 -307q0 -125 40 -190q67 -110 209 -110q245 0 245 305q0 299 -246 302z" />
    <glyph glyph-name="yacute" unicode="&#xfd;" horiz-adv-x="1175" 
d="M789 213v784h274v-977q0 -195 -102.5 -285t-325.5 -90h-490v213h490q88 1 115 20q20 11 26.5 31t12.5 91h-245q-422 -10 -399 440v557h274v-530q0 -155 28 -204.5t116 -49.5h226zM887 1382l-254 -267h-176l188 267h242z" />
    <glyph glyph-name="thorn" unicode="&#xfe;" horiz-adv-x="1208" 
d="M409 997h205q140 0 212 -17.5t136 -67.5q178 -140 178 -429q0 -219 -131 -355q-65 -67 -150 -97.5t-208 -30.5h-242v-375h-274v1740h274v-368zM409 784v-571h168q133 0 196 57q86 77 86 234q0 135 -68 207.5t-195 72.5h-187z" />
    <glyph glyph-name="Cacute" unicode="&#x106;" horiz-adv-x="1243" 
d="M1059 1720l-257 -252h-180l188 252h249zM1177 243v-243h-476q-136 0 -208 14q-251 49 -357 281q-70 155 -70 384q0 275 107 448q77 124 206.5 181t335.5 57h462v-243h-429q-195 0 -286 -104q-75 -86 -75 -312q0 -302 117 -397q82 -66 255 -66h418z" />
    <glyph glyph-name="cacute" unicode="&#x107;" horiz-adv-x="1044" 
d="M903 1382l-254 -267h-176l188 267h242zM967 997v-213h-329q-164 0 -229 -74q-61 -70 -61 -212q0 -161 100 -233q41 -30 89 -41t134 -11h296v-213h-375q-151 0 -239 30.5t-157 107.5q-128 143 -128 363q0 266 154 398q61 53 147 75.5t223 22.5h375z" />
    <glyph glyph-name="Ccaron" unicode="&#x10c;" horiz-adv-x="1243" 
d="M752 1574l127 146h207l-222 -252h-225l-222 252h207zM1177 243v-243h-476q-136 0 -208 14q-251 49 -357 281q-70 155 -70 384q0 275 107 448q77 124 206.5 181t335.5 57h462v-243h-429q-195 0 -286 -104q-75 -86 -75 -312q0 -302 117 -397q82 -66 255 -66h418z" />
    <glyph glyph-name="ccaron" unicode="&#x10d;" horiz-adv-x="1044" 
d="M607 1219l130 163h197l-217 -267h-220l-218 267h198zM967 997v-213h-329q-164 0 -229 -74q-61 -70 -61 -212q0 -161 100 -233q41 -30 89 -41t134 -11h296v-213h-375q-151 0 -239 30.5t-157 107.5q-128 143 -128 363q0 266 154 398q61 53 147 75.5t223 22.5h375z" />
    <glyph glyph-name="dmacron" unicode="&#x111;" horiz-adv-x="1212" 
d="M1076 1365v-105h122v-177h-122v-1083h-472q-144 0 -217 22q-175 53 -261 211q-58 106 -58 258q0 252 178 393q107 85 297 85h259v114h-294v177h294v105h274zM802 213v543h-198q-122 0 -189.5 -72t-67.5 -203q0 -149 95 -219q68 -49 162 -49h198z" />
    <glyph glyph-name="Gbreve" unicode="&#x11e;" horiz-adv-x="1416" 
d="M484 1720h153q28 -99 155 -99q125 0 153 99h153q-8 -86 -50 -143q-82 -112 -259 -112q-134 0 -215 67.5t-90 187.5zM640 811h671v-811h-610q-159 0 -251.5 23.5t-168.5 82.5q-215 166 -215 571q0 266 102 441q76 129 206.5 188t340.5 59h596v-243h-563q-182 0 -265 -80
q-97 -94 -97 -337q0 -125 25.5 -225.5t69.5 -149.5q40 -45 108 -66t169 -21h263v325h-381v243z" />
    <glyph glyph-name="gbreve" unicode="&#x11f;" horiz-adv-x="1226" 
d="M358 1382h152q25 -117 149 -117q122 0 148 117h152q-8 -91 -49 -152q-81 -118 -250 -118q-135 0 -214 71t-88 199zM1091 997v-990q0 -84 -19 -149.5t-57 -111.5q-46 -57 -113 -79t-194 -22h-547v213h510q90 0 118 27.5t28 114.5h-252q-121 0 -199.5 25.5t-142.5 85.5
q-150 140 -150 388q0 283 182 413q66 46 139 65.5t185 19.5h512zM817 784h-227q-237 0 -237 -286q0 -140 64 -212.5t187 -72.5h213v571z" />
    <glyph glyph-name="Idot" unicode="&#x130;" horiz-adv-x="569" 
d="M396 1700v-225h-221v225h221zM140 0v1365h290v-1365h-290z" />
    <glyph glyph-name="Lslash" unicode="&#x141;" horiz-adv-x="1101" 
d="M424 1365v-460l254 132v-227l-254 -133v-78q6 -146 13 -194q14 -93 89.5 -127.5t265.5 -34.5h279v-243h-309q-219 -1 -318 25q-226 66 -286 287q-21 85 -24 268l-127 -63v228l127 63v557h290z" />
    <glyph glyph-name="lslash" unicode="&#x142;" horiz-adv-x="545" 
d="M409 1365v-522l129 87v-205l-129 -87v-638h-274v520l-128 -88v205l128 88v640h274z" />
    <glyph glyph-name="Scedilla" unicode="&#x15e;" horiz-adv-x="1424" 
d="M712 0v-85h22q96 0 137 -27q62 -41 62 -137q0 -112 -84 -144q-42 -17 -129 -17h-174v111h145q47 0 65.5 13t18.5 46q0 35 -17.5 48t-65.5 13h-95v179h-461v243h623q150 0 200 30q72 43 72 129q0 99 -84 145q-48 26 -153 26h-254q-231 0 -333 84q-64 53 -100 133.5
t-36 171.5q0 145 84 263q83 115 263 134q61 6 182 6h677v-243h-611q-137 -1 -182 -12q-92 -23 -92 -139q0 -98 77 -132q52 -23 172 -23h220q166 0 250 -29q145 -49 199 -172q44 -99 44 -212q0 -124 -57 -223q-80 -140 -241 -167q-78 -13 -234 -13h-110z" />
    <glyph glyph-name="scedilla" unicode="&#x15f;" horiz-adv-x="1124" 
d="M568 0v-92h20q89 0 126 -25q57 -38 57 -125q0 -100 -77 -129q-39 -15 -119 -15h-160v100h142q33 0 47.5 13t14.5 42q0 34 -14 45t-55 11h-87v175h-370v213h488q91 0 124 3q73 8 73 82q0 62 -48 85q-26 13 -119 13h-167q-97 0 -149.5 12t-97.5 45q-56 39 -87.5 107
t-31.5 147q0 150 109 238q65 52 226 52h587v-213h-486q-83 0 -106 -8q-47 -16 -47 -80q0 -53 45 -81q25 -16 133 -16h162q156 0 245 -67q100 -75 100 -217q0 -108 -60 -199q-46 -70 -111 -93t-215 -23h-92z" />
    <glyph glyph-name="Scaron" unicode="&#x160;" horiz-adv-x="1424" 
d="M136 0v243h623q150 0 200 30q72 43 72 129q0 99 -84 145q-48 26 -153 26h-253q-232 0 -334 84q-64 53 -100 133.5t-36 171.5q0 144 84 263q82 115 263 134q61 6 182 6h677v-243h-611q-137 -1 -182 -12q-92 -23 -92 -139q0 -98 77 -132q52 -23 172 -23h219q168 0 251 -29
q145 -49 199 -172q44 -99 44 -212q0 -124 -57 -223q-80 -140 -241 -167q-78 -13 -234 -13h-686zM754 1574l127 146h207l-222 -252h-225l-222 252h207z" />
    <glyph glyph-name="scaron" unicode="&#x161;" horiz-adv-x="1124" 
d="M1000 997v-213h-486q-83 0 -106 -8q-47 -16 -47 -80q0 -53 45 -81q24 -16 133 -16h162q155 0 245 -67q100 -74 100 -217q0 -108 -60 -199q-46 -70 -111 -93t-215 -23h-567v213h488q91 0 124 3q73 8 73 82q0 62 -48 85q-26 13 -120 13h-166q-97 0 -149.5 12t-97.5 44
q-55 40 -87 108t-32 147q0 150 109 238q65 52 227 52h586zM583 1219l130 163h197l-217 -267h-220l-218 267h198z" />
    <glyph glyph-name="Zcaron" unicode="&#x17d;" horiz-adv-x="1340" 
d="M939 1122h-862v243h1187v-251l-831 -871h831v-243h-1187v236zM671 1574l127 146h207l-222 -252h-225l-222 252h207z" />
    <glyph glyph-name="zcaron" unicode="&#x17e;" horiz-adv-x="1079" 
d="M640 784h-577v213h941v-206l-577 -578h577v-213h-941v206zM534 1219l130 163h197l-217 -267h-220l-218 267h198z" />
    <glyph glyph-name="franc" unicode="&#x20a3;" horiz-adv-x="1992" 
d="M1104 807v-243h-690v-564h-290v713q3 307 59 404q69 134 201.5 191t371.5 57h472v-243h-435q-203 -3 -261 -33q-115 -47 -118 -209v-73h690zM1229 807h363q199 0 272.5 -61t73.5 -227v-84h-244v50q0 81 -31 110t-118 29h-62v-624h-254v807z" />
    <glyph glyph-name="minus" unicode="&#x2212;" horiz-adv-x="1146" 
d="M75 809h995v-224h-995v224z" />
    <glyph glyph-name="glyph294" horiz-adv-x="1024" 
d="M622 1700v-225h-221v225h221z" />
    <glyph glyph-name="glyph295" horiz-adv-x="1024" 
d="M822 1700v-225h-221v225h221zM422 1700v-225h-221v225h221z" />
    <glyph glyph-name="glyph296" horiz-adv-x="1024" 
d="M761 1700v-225h-208v225h208zM472 1700v-225h-208v225h208z" />
    <glyph glyph-name="glyph297" horiz-adv-x="1024" 
d="M513 1574l127 146h207l-222 -252h-225l-222 252h207z" />
    <glyph glyph-name="glyph298" horiz-adv-x="1024" 
d="M513 1614l-128 -146h-207l222 252h225l222 -252h-207z" />
    <glyph glyph-name="glyph299" horiz-adv-x="1024" 
d="M195 1720h249l188 -252h-180z" />
    <glyph glyph-name="glyph300" horiz-adv-x="1024" 
d="M830 1720l-257 -252h-180l188 252h249z" />
    <glyph glyph-name="glyph301" horiz-adv-x="1024" 
d="M758 1352v-225h-205v225h205zM471 1352v-225h-205v225h205z" />
    <glyph glyph-name="glyph302" horiz-adv-x="1024" 
d="M205 1720h153q28 -99 155 -99q125 0 153 99h153q-8 -86 -50 -143q-82 -112 -259 -112q-134 0 -215 67.5t-90 187.5z" />
    <glyph glyph-name="glyph303" horiz-adv-x="1024" 
d="M850 1696q-26 -222 -191 -222q-69 0 -232 63q-26 10 -50 10q-63 0 -76 -69h-127q31 222 194 222q52 0 170 -42q82 -30 111 -30q59 0 74 68h127z" />
    <glyph glyph-name="glyph304" 
 />
    </font>
</defs>
</svg>
